<?xml version="1.0" encoding="UTF-8" standalone="no"?>
<!DOCTYPE svg PUBLIC "-//W3C//DTD SVG 1.1//EN"
 "http://www.w3.org/Graphics/SVG/1.1/DTD/svg11.dtd">
<!-- Generated by graphviz version 2.38.0 (20140413.2041)
 -->
<!-- Title: ClassTree Pages: 1 -->
<svg width="643pt" height="352pt"
 viewBox="0.00 0.00 642.58 352.17" xmlns="http://www.w3.org/2000/svg" xmlns:xlink="http://www.w3.org/1999/xlink">
<g id="graph0" class="graph" transform="scale(1 1) rotate(0) translate(4 348.174)">
<title>ClassTree</title>
<polygon fill="white" stroke="none" points="-4,4 -4,-348.174 638.576,-348.174 638.576,4 -4,4"/>
<!-- GameObject -->
<g id="node1" class="node"><title>GameObject</title>
<ellipse fill="none" stroke="black" cx="433.782" cy="-317.304" rx="67.7647" ry="26.7407"/>
<text text-anchor="middle" x="433.782" y="-321.104" font-family="Georgia" font-size="14.00">GameObject</text>
<text text-anchor="middle" x="433.782" y="-306.104" font-family="Georgia" font-size="14.00">(Children)</text>
</g>
<!-- Container -->
<g id="node2" class="node"><title>Container</title>
<ellipse fill="none" stroke="black" cx="295.782" cy="-227.563" rx="67.3507" ry="26.7407"/>
<text text-anchor="middle" x="295.782" y="-231.363" font-family="Georgia" font-size="14.00">Container</text>
<text text-anchor="middle" x="295.782" y="-216.363" font-family="Georgia" font-size="14.00">(Transform)</text>
</g>
<!-- GameObject&#45;&gt;Container -->
<g id="edge1" class="edge"><title>GameObject&#45;&gt;Container</title>
<path fill="none" stroke="black" d="M398.959,-294.163C380.817,-282.629 358.459,-268.414 339.199,-256.168"/>
<polygon fill="black" stroke="black" points="340.911,-253.109 330.594,-250.697 337.155,-259.016 340.911,-253.109"/>
</g>
<!-- GOLayer -->
<g id="node6" class="node"><title>GOLayer</title>
<ellipse fill="none" stroke="black" cx="433.782" cy="-227.563" rx="33.5952" ry="18"/>
<text text-anchor="middle" x="433.782" y="-223.863" font-family="Georgia" font-size="14.00">Layer</text>
</g>
<!-- GameObject&#45;&gt;GOLayer -->
<g id="edge5" class="edge"><title>GameObject&#45;&gt;GOLayer</title>
<path fill="none" stroke="black" d="M433.782,-289.979C433.782,-279.227 433.782,-266.792 433.782,-255.935"/>
<polygon fill="black" stroke="black" points="437.282,-255.725 433.782,-245.725 430.282,-255.725 437.282,-255.725"/>
</g>
<!-- World -->
<g id="node10" class="node"><title>World</title>
<ellipse fill="none" stroke="black" cx="539.782" cy="-227.563" rx="54.3945" ry="26.7407"/>
<text text-anchor="middle" x="539.782" y="-231.363" font-family="Georgia" font-size="14.00">World</text>
<text text-anchor="middle" x="539.782" y="-216.363" font-family="Georgia" font-size="14.00">(Camera)</text>
</g>
<!-- GameObject&#45;&gt;World -->
<g id="edge9" class="edge"><title>GameObject&#45;&gt;World</title>
<path fill="none" stroke="black" d="M462.188,-292.791C475.311,-281.928 491.02,-268.925 504.86,-257.47"/>
<polygon fill="black" stroke="black" points="507.288,-260.004 512.759,-250.931 502.824,-254.611 507.288,-260.004"/>
</g>
<!-- Sprite -->
<g id="node3" class="node"><title>Sprite</title>
<ellipse fill="none" stroke="black" cx="276.782" cy="-137.823" rx="54.3945" ry="26.7407"/>
<text text-anchor="middle" x="276.782" y="-141.623" font-family="Georgia" font-size="14.00">Sprite</text>
<text text-anchor="middle" x="276.782" y="-126.623" font-family="Georgia" font-size="14.00">(Texture)</text>
</g>
<!-- Container&#45;&gt;Sprite -->
<g id="edge2" class="edge"><title>Container&#45;&gt;Sprite</title>
<path fill="none" stroke="black" d="M290.184,-200.713C288.422,-192.575 286.442,-183.435 284.557,-174.728"/>
<polygon fill="black" stroke="black" points="287.942,-173.825 282.405,-164.792 281.101,-175.306 287.942,-173.825"/>
</g>
<!-- Text -->
<g id="node4" class="node"><title>Text</title>
<ellipse fill="none" stroke="black" cx="77.7817" cy="-37.4767" rx="77.5641" ry="37.4533"/>
<text text-anchor="middle" x="77.7817" y="-48.7767" font-family="Georgia" font-size="14.00">Text</text>
<text text-anchor="middle" x="77.7817" y="-33.7767" font-family="Georgia" font-size="14.00">(Text&#45;&gt;Canvas</text>
<text text-anchor="middle" x="77.7817" y="-18.7767" font-family="Georgia" font-size="14.00">&#45;&gt;Texture)</text>
</g>
<!-- Sprite&#45;&gt;Text -->
<g id="edge3" class="edge"><title>Sprite&#45;&gt;Text</title>
<path fill="none" stroke="black" d="M238.883,-118.094C211.171,-104.398 172.948,-85.5082 140.688,-69.5652"/>
<polygon fill="black" stroke="black" points="141.84,-66.2307 131.325,-64.9379 138.739,-72.5062 141.84,-66.2307"/>
</g>
<!-- AnimatedSprite -->
<g id="node5" class="node"><title>AnimatedSprite</title>
<ellipse fill="none" stroke="black" cx="276.782" cy="-37.4767" rx="103.476" ry="26.7407"/>
<text text-anchor="middle" x="276.782" y="-41.2767" font-family="Georgia" font-size="14.00">AnimatedSprite</text>
<text text-anchor="middle" x="276.782" y="-26.2767" font-family="Georgia" font-size="14.00">(Texture animation)</text>
</g>
<!-- Sprite&#45;&gt;AnimatedSprite -->
<g id="edge4" class="edge"><title>Sprite&#45;&gt;AnimatedSprite</title>
<path fill="none" stroke="black" d="M276.782,-110.726C276.782,-99.6352 276.782,-86.5183 276.782,-74.5252"/>
<polygon fill="black" stroke="black" points="280.282,-74.3542 276.782,-64.3543 273.282,-74.3543 280.282,-74.3542"/>
</g>
<!-- RenderLayer -->
<g id="node7" class="node"><title>RenderLayer</title>
<ellipse fill="none" stroke="black" cx="433.782" cy="-137.823" rx="63.8893" ry="18"/>
<text text-anchor="middle" x="433.782" y="-134.123" font-family="Georgia" font-size="14.00">RenderLayer</text>
</g>
<!-- GOLayer&#45;&gt;RenderLayer -->
<g id="edge6" class="edge"><title>GOLayer&#45;&gt;RenderLayer</title>
<path fill="none" stroke="black" d="M433.782,-209.229C433.782,-196.892 433.782,-180.07 433.782,-165.963"/>
<polygon fill="black" stroke="black" points="437.282,-165.823 433.782,-155.823 430.282,-165.823 437.282,-165.823"/>
</g>
<!-- SpriteBatch -->
<g id="node9" class="node"><title>SpriteBatch</title>
<ellipse fill="none" stroke="black" cx="574.782" cy="-137.823" rx="59.5901" ry="18"/>
<text text-anchor="middle" x="574.782" y="-134.123" font-family="Georgia" font-size="14.00">SpriteBatch</text>
</g>
<!-- GOLayer&#45;&gt;SpriteBatch -->
<g id="edge8" class="edge"><title>GOLayer&#45;&gt;SpriteBatch</title>
<path fill="none" stroke="black" d="M454.891,-213.428C477.668,-199.254 514.268,-176.479 541.045,-159.817"/>
<polygon fill="black" stroke="black" points="543.073,-162.677 549.715,-154.422 539.375,-156.734 543.073,-162.677"/>
</g>
<!-- EffectLayer -->
<g id="node8" class="node"><title>EffectLayer</title>
<ellipse fill="none" stroke="black" cx="455.782" cy="-37.4767" rx="57.6901" ry="18"/>
<text text-anchor="middle" x="455.782" y="-33.7767" font-family="Georgia" font-size="14.00">EffectLayer</text>
</g>
<!-- RenderLayer&#45;&gt;EffectLayer -->
<g id="edge7" class="edge"><title>RenderLayer&#45;&gt;EffectLayer</title>
<path fill="none" stroke="black" d="M437.614,-119.693C440.937,-104.835 445.807,-83.0659 449.669,-65.8042"/>
<polygon fill="black" stroke="black" points="453.152,-66.2639 451.92,-55.741 446.321,-64.7357 453.152,-66.2639"/>
</g>
</g>
</svg>
