<?xml version="1.0" encoding="UTF-8" standalone="no"?>
<!DOCTYPE svg PUBLIC "-//W3C//DTD SVG 1.1//EN"
 "http://www.w3.org/Graphics/SVG/1.1/DTD/svg11.dtd">
<!-- Generated by graphviz version 2.38.0 (20140413.2041)
 -->
<!-- Title: ClassTree Pages: 1 -->
<svg width="641pt" height="83pt"
 viewBox="0.00 0.00 641.44 82.95" xmlns="http://www.w3.org/2000/svg" xmlns:xlink="http://www.w3.org/1999/xlink">
<g id="graph0" class="graph" transform="scale(1 1) rotate(0) translate(4 78.9533)">
<title>ClassTree</title>
<polygon fill="white" stroke="none" points="-4,4 -4,-78.9533 637.443,-78.9533 637.443,4 -4,4"/>
<!-- GameObject -->
<g id="node1" class="node"><title>GameObject</title>
<ellipse fill="none" stroke="black" cx="67.8823" cy="-37.4767" rx="67.7647" ry="26.7407"/>
<text text-anchor="middle" x="67.8823" y="-41.2767" font-family="Georgia" font-size="14.00">GameObject</text>
<text text-anchor="middle" x="67.8823" y="-26.2767" font-family="Georgia" font-size="14.00">(Children)</text>
</g>
<!-- GOLayer -->
<g id="node2" class="node"><title>GOLayer</title>
<ellipse fill="none" stroke="black" cx="264.395" cy="-37.4767" rx="92.7622" ry="37.4533"/>
<text text-anchor="middle" x="264.395" y="-48.7767" font-family="Georgia" font-size="14.00">Layer</text>
<text text-anchor="middle" x="264.395" y="-33.7767" font-family="Georgia" font-size="14.00">(Bypass transfom,</text>
<text text-anchor="middle" x="264.395" y="-18.7767" font-family="Georgia" font-size="14.00">visible)</text>
</g>
<!-- GameObject&#45;&gt;GOLayer -->
<g id="edge1" class="edge"><title>GameObject&#45;&gt;GOLayer</title>
<path fill="none" stroke="black" d="M135.823,-37.4767C144.116,-37.4767 152.737,-37.4767 161.407,-37.4767"/>
<polygon fill="black" stroke="black" points="161.592,-40.9768 171.592,-37.4767 161.592,-33.9768 161.592,-40.9768"/>
</g>
<!-- RenderLayer -->
<g id="node3" class="node"><title>RenderLayer</title>
<ellipse fill="none" stroke="black" cx="513.235" cy="-37.4767" rx="120.417" ry="37.4533"/>
<text text-anchor="middle" x="513.235" y="-48.7767" font-family="Georgia" font-size="14.00">RenderLayer</text>
<text text-anchor="middle" x="513.235" y="-33.7767" font-family="Georgia" font-size="14.00">(Cache rendering result </text>
<text text-anchor="middle" x="513.235" y="-18.7767" font-family="Georgia" font-size="14.00">of children)</text>
</g>
<!-- GOLayer&#45;&gt;RenderLayer -->
<g id="edge2" class="edge"><title>GOLayer&#45;&gt;RenderLayer</title>
<path fill="none" stroke="black" d="M357.309,-37.4767C365.683,-37.4767 374.265,-37.4767 382.885,-37.4767"/>
<polygon fill="black" stroke="black" points="383.012,-40.9768 393.012,-37.4767 383.012,-33.9768 383.012,-40.9768"/>
</g>
</g>
</svg>
