<?xml version="1.0" encoding="UTF-8" standalone="no"?>
<!DOCTYPE svg PUBLIC "-//W3C//DTD SVG 1.1//EN"
 "http://www.w3.org/Graphics/SVG/1.1/DTD/svg11.dtd">
<!-- Generated by graphviz version 2.38.0 (20140413.2041)
 -->
<!-- Title: ClassTree Pages: 1 -->
<svg width="761pt" height="395pt"
 viewBox="0.00 0.00 760.74 394.60" xmlns="http://www.w3.org/2000/svg" xmlns:xlink="http://www.w3.org/1999/xlink">
<g id="graph0" class="graph" transform="scale(1 1) rotate(0) translate(4 390.6)">
<title>ClassTree</title>
<polygon fill="white" stroke="none" points="-4,4 -4,-390.6 756.735,-390.6 756.735,4 -4,4"/>
<!-- GameObject -->
<g id="node1" class="node"><title>GameObject</title>
<ellipse fill="none" stroke="black" cx="464.782" cy="-359.73" rx="67.7647" ry="26.7407"/>
<text text-anchor="middle" x="464.782" y="-363.53" font-family="Georgia" font-size="14.00">GameObject</text>
<text text-anchor="middle" x="464.782" y="-348.53" font-family="Georgia" font-size="14.00">(Children)</text>
</g>
<!-- Container -->
<g id="node2" class="node"><title>Container</title>
<ellipse fill="none" stroke="black" cx="280.782" cy="-259.383" rx="65.5227" ry="37.4533"/>
<text text-anchor="middle" x="280.782" y="-270.683" font-family="Georgia" font-size="14.00">Container</text>
<text text-anchor="middle" x="280.782" y="-255.683" font-family="Georgia" font-size="14.00">(Transform,</text>
<text text-anchor="middle" x="280.782" y="-240.683" font-family="Georgia" font-size="14.00">Size)</text>
</g>
<!-- GameObject&#45;&gt;Container -->
<g id="edge1" class="edge"><title>GameObject&#45;&gt;Container</title>
<path fill="none" stroke="black" d="M425.309,-337.632C399.582,-323.881 365.614,-305.726 337.074,-290.471"/>
<polygon fill="black" stroke="black" points="338.484,-287.256 328.015,-285.629 335.185,-293.43 338.484,-287.256"/>
</g>
<!-- GOLayer -->
<g id="node6" class="node"><title>GOLayer</title>
<ellipse fill="none" stroke="black" cx="464.782" cy="-259.383" rx="92.7622" ry="37.4533"/>
<text text-anchor="middle" x="464.782" y="-270.683" font-family="Georgia" font-size="14.00">Layer</text>
<text text-anchor="middle" x="464.782" y="-255.683" font-family="Georgia" font-size="14.00">(Bypass transfom,</text>
<text text-anchor="middle" x="464.782" y="-240.683" font-family="Georgia" font-size="14.00">visible)</text>
</g>
<!-- GameObject&#45;&gt;GOLayer -->
<g id="edge5" class="edge"><title>GameObject&#45;&gt;GOLayer</title>
<path fill="none" stroke="black" d="M464.782,-332.633C464.782,-324.78 464.782,-315.912 464.782,-307.146"/>
<polygon fill="black" stroke="black" points="468.282,-306.969 464.782,-296.969 461.282,-306.969 468.282,-306.969"/>
</g>
<!-- World -->
<g id="node10" class="node"><title>World</title>
<ellipse fill="none" stroke="black" cx="629.782" cy="-259.383" rx="54.3945" ry="26.7407"/>
<text text-anchor="middle" x="629.782" y="-263.183" font-family="Georgia" font-size="14.00">World</text>
<text text-anchor="middle" x="629.782" y="-248.183" font-family="Georgia" font-size="14.00">(Camera)</text>
</g>
<!-- GameObject&#45;&gt;World -->
<g id="edge9" class="edge"><title>GameObject&#45;&gt;World</title>
<path fill="none" stroke="black" d="M501.401,-336.904C526.735,-321.804 560.532,-301.659 587.09,-285.829"/>
<polygon fill="black" stroke="black" points="588.999,-288.766 595.797,-280.64 585.415,-282.753 588.999,-288.766"/>
</g>
<!-- Sprite -->
<g id="node3" class="node"><title>Sprite</title>
<ellipse fill="none" stroke="black" cx="271.782" cy="-148.43" rx="54.3945" ry="26.7407"/>
<text text-anchor="middle" x="271.782" y="-152.23" font-family="Georgia" font-size="14.00">Sprite</text>
<text text-anchor="middle" x="271.782" y="-137.23" font-family="Georgia" font-size="14.00">(Texture)</text>
</g>
<!-- Container&#45;&gt;Sprite -->
<g id="edge2" class="edge"><title>Container&#45;&gt;Sprite</title>
<path fill="none" stroke="black" d="M277.76,-221.8C276.798,-210.157 275.735,-197.286 274.775,-185.668"/>
<polygon fill="black" stroke="black" points="278.24,-185.098 273.929,-175.42 271.264,-185.674 278.24,-185.098"/>
</g>
<!-- Text -->
<g id="node4" class="node"><title>Text</title>
<ellipse fill="none" stroke="black" cx="77.7817" cy="-37.4767" rx="77.5641" ry="37.4533"/>
<text text-anchor="middle" x="77.7817" y="-48.7767" font-family="Georgia" font-size="14.00">Text</text>
<text text-anchor="middle" x="77.7817" y="-33.7767" font-family="Georgia" font-size="14.00">(Text&#45;&gt;Canvas</text>
<text text-anchor="middle" x="77.7817" y="-18.7767" font-family="Georgia" font-size="14.00">&#45;&gt;Texture)</text>
</g>
<!-- Sprite&#45;&gt;Text -->
<g id="edge3" class="edge"><title>Sprite&#45;&gt;Text</title>
<path fill="none" stroke="black" d="M236.65,-127.699C208.804,-112.061 169.283,-89.8651 136.626,-71.5245"/>
<polygon fill="black" stroke="black" points="138.046,-68.3075 127.613,-66.4624 134.618,-74.4109 138.046,-68.3075"/>
</g>
<!-- AnimatedSprite -->
<g id="node5" class="node"><title>AnimatedSprite</title>
<ellipse fill="none" stroke="black" cx="276.782" cy="-37.4767" rx="103.476" ry="26.7407"/>
<text text-anchor="middle" x="276.782" y="-41.2767" font-family="Georgia" font-size="14.00">AnimatedSprite</text>
<text text-anchor="middle" x="276.782" y="-26.2767" font-family="Georgia" font-size="14.00">(Texture animation)</text>
</g>
<!-- Sprite&#45;&gt;AnimatedSprite -->
<g id="edge4" class="edge"><title>Sprite&#45;&gt;AnimatedSprite</title>
<path fill="none" stroke="black" d="M272.979,-121.333C273.623,-107.318 274.425,-89.8253 275.127,-74.5295"/>
<polygon fill="black" stroke="black" points="278.632,-74.5107 275.594,-64.3607 271.639,-74.1897 278.632,-74.5107"/>
</g>
<!-- RenderLayer -->
<g id="node7" class="node"><title>RenderLayer</title>
<ellipse fill="none" stroke="black" cx="464.782" cy="-148.43" rx="120.417" ry="37.4533"/>
<text text-anchor="middle" x="464.782" y="-159.73" font-family="Georgia" font-size="14.00">RenderLayer</text>
<text text-anchor="middle" x="464.782" y="-144.73" font-family="Georgia" font-size="14.00">(Cache rendering result </text>
<text text-anchor="middle" x="464.782" y="-129.73" font-family="Georgia" font-size="14.00">of children)</text>
</g>
<!-- GOLayer&#45;&gt;RenderLayer -->
<g id="edge6" class="edge"><title>GOLayer&#45;&gt;RenderLayer</title>
<path fill="none" stroke="black" d="M464.782,-221.8C464.782,-213.626 464.782,-204.846 464.782,-196.319"/>
<polygon fill="black" stroke="black" points="468.282,-196.102 464.782,-186.102 461.282,-196.102 468.282,-196.102"/>
</g>
<!-- SpriteBatch -->
<g id="node9" class="node"><title>SpriteBatch</title>
<ellipse fill="none" stroke="black" cx="677.782" cy="-148.43" rx="74.9067" ry="37.4533"/>
<text text-anchor="middle" x="677.782" y="-159.73" font-family="Georgia" font-size="14.00">SpriteBatch</text>
<text text-anchor="middle" x="677.782" y="-144.73" font-family="Georgia" font-size="14.00">(Draw texture</text>
<text text-anchor="middle" x="677.782" y="-129.73" font-family="Georgia" font-size="14.00">many times)</text>
</g>
<!-- GOLayer&#45;&gt;SpriteBatch -->
<g id="edge8" class="edge"><title>GOLayer&#45;&gt;SpriteBatch</title>
<path fill="none" stroke="black" d="M521.303,-229.472C550.789,-214.389 586.887,-195.924 616.978,-180.532"/>
<polygon fill="black" stroke="black" points="618.801,-183.531 626.11,-175.861 615.613,-177.299 618.801,-183.531"/>
</g>
<!-- EffectLayer -->
<g id="node8" class="node"><title>EffectLayer</title>
<ellipse fill="none" stroke="black" cx="464.782" cy="-37.4767" rx="62.8651" ry="26.7407"/>
<text text-anchor="middle" x="464.782" y="-41.2767" font-family="Georgia" font-size="14.00">EffectLayer</text>
<text text-anchor="middle" x="464.782" y="-26.2767" font-family="Georgia" font-size="14.00">(Shaser)</text>
</g>
<!-- RenderLayer&#45;&gt;EffectLayer -->
<g id="edge7" class="edge"><title>RenderLayer&#45;&gt;EffectLayer</title>
<path fill="none" stroke="black" d="M464.782,-110.847C464.782,-99.2035 464.782,-86.3332 464.782,-74.7142"/>
<polygon fill="black" stroke="black" points="468.282,-74.4666 464.782,-64.4666 461.282,-74.4666 468.282,-74.4666"/>
</g>
</g>
</svg>
