<?xml version="1.0" encoding="UTF-8" standalone="no"?>
<!DOCTYPE svg PUBLIC "-//W3C//DTD SVG 1.1//EN"
 "http://www.w3.org/Graphics/SVG/1.1/DTD/svg11.dtd">
<!-- Generated by graphviz version 2.38.0 (20140413.2041)
 -->
<!-- Title: ClassTree Pages: 1 -->
<svg width="313pt" height="331pt"
 viewBox="0.00 0.00 312.76 330.96" xmlns="http://www.w3.org/2000/svg" xmlns:xlink="http://www.w3.org/1999/xlink">
<g id="graph0" class="graph" transform="scale(1 1) rotate(0) translate(4 326.96)">
<title>ClassTree</title>
<polygon fill="white" stroke="none" points="-4,4 -4,-326.96 308.756,-326.96 308.756,4 -4,4"/>
<!-- GameObject -->
<g id="node1" class="node"><title>GameObject</title>
<ellipse fill="none" stroke="black" cx="180.309" cy="-296.09" rx="67.7647" ry="26.7407"/>
<text text-anchor="middle" x="180.309" y="-299.89" font-family="Georgia" font-size="14.00">GameObject</text>
<text text-anchor="middle" x="180.309" y="-284.89" font-family="Georgia" font-size="14.00">(Children)</text>
</g>
<!-- Container -->
<g id="node2" class="node"><title>Container</title>
<ellipse fill="none" stroke="black" cx="110.309" cy="-206.35" rx="67.3507" ry="26.7407"/>
<text text-anchor="middle" x="110.309" y="-210.15" font-family="Georgia" font-size="14.00">Container</text>
<text text-anchor="middle" x="110.309" y="-195.15" font-family="Georgia" font-size="14.00">(Transform)</text>
</g>
<!-- GameObject&#45;&gt;Container -->
<g id="edge1" class="edge"><title>GameObject&#45;&gt;Container</title>
<path fill="none" stroke="black" d="M160.437,-270.182C153.047,-260.92 144.544,-250.262 136.664,-240.385"/>
<polygon fill="black" stroke="black" points="139.203,-237.955 130.23,-232.321 133.731,-242.321 139.203,-237.955"/>
</g>
<!-- World -->
<g id="node5" class="node"><title>World</title>
<ellipse fill="none" stroke="black" cx="250.309" cy="-206.35" rx="54.3945" ry="26.7407"/>
<text text-anchor="middle" x="250.309" y="-210.15" font-family="Georgia" font-size="14.00">World</text>
<text text-anchor="middle" x="250.309" y="-195.15" font-family="Georgia" font-size="14.00">(Camera)</text>
</g>
<!-- GameObject&#45;&gt;World -->
<g id="edge4" class="edge"><title>GameObject&#45;&gt;World</title>
<path fill="none" stroke="black" d="M200.181,-270.182C207.771,-260.668 216.538,-249.68 224.596,-239.579"/>
<polygon fill="black" stroke="black" points="227.37,-241.714 230.871,-231.714 221.898,-237.349 227.37,-241.714"/>
</g>
<!-- Sprite -->
<g id="node3" class="node"><title>Sprite</title>
<ellipse fill="none" stroke="black" cx="110.309" cy="-116.61" rx="54.3945" ry="26.7407"/>
<text text-anchor="middle" x="110.309" y="-120.41" font-family="Georgia" font-size="14.00">Sprite</text>
<text text-anchor="middle" x="110.309" y="-105.41" font-family="Georgia" font-size="14.00">(Texture)</text>
</g>
<!-- Container&#45;&gt;Sprite -->
<g id="edge2" class="edge"><title>Container&#45;&gt;Sprite</title>
<path fill="none" stroke="black" d="M110.309,-179.025C110.309,-171.059 110.309,-162.168 110.309,-153.679"/>
<polygon fill="black" stroke="black" points="113.809,-153.614 110.309,-143.614 106.809,-153.614 113.809,-153.614"/>
</g>
<!-- Text -->
<g id="node4" class="node"><title>Text</title>
<ellipse fill="none" stroke="black" cx="110.309" cy="-26.8701" rx="110.118" ry="26.7407"/>
<text text-anchor="middle" x="110.309" y="-30.6701" font-family="Georgia" font-size="14.00">Text</text>
<text text-anchor="middle" x="110.309" y="-15.6701" font-family="Georgia" font-size="14.00">(Draw text on canvas)</text>
</g>
<!-- Sprite&#45;&gt;Text -->
<g id="edge3" class="edge"><title>Sprite&#45;&gt;Text</title>
<path fill="none" stroke="black" d="M110.309,-89.2852C110.309,-81.3185 110.309,-72.4275 110.309,-63.9391"/>
<polygon fill="black" stroke="black" points="113.809,-63.874 110.309,-53.874 106.809,-63.8741 113.809,-63.874"/>
</g>
</g>
</svg>
