<?xml version="1.0" encoding="UTF-8" standalone="no"?>
<!DOCTYPE svg PUBLIC "-//W3C//DTD SVG 1.1//EN"
 "http://www.w3.org/Graphics/SVG/1.1/DTD/svg11.dtd">
<!-- Generated by graphviz version 2.38.0 (20140413.2041)
 -->
<!-- Title: UpdateLoop Pages: 1 -->
<svg width="320pt" height="830pt"
 viewBox="0.00 0.00 320.00 830.00" xmlns="http://www.w3.org/2000/svg" xmlns:xlink="http://www.w3.org/1999/xlink">
<g id="graph0" class="graph" transform="scale(1 1) rotate(0) translate(4 826)">
<title>UpdateLoop</title>
<polygon fill="white" stroke="none" points="-4,4 -4,-826 316,-826 316,4 -4,4"/>
<g id="clust1" class="cluster"><title>cluster_gamestep</title>
<polygon fill="none" stroke="gray" points="8,-8 8,-814 304,-814 304,-8 8,-8"/>
<text text-anchor="middle" x="156" y="-798.8" font-family="Georgia" font-size="14.00">Game.step()</text>
</g>
<g id="clust2" class="cluster"><title>cluster_sceneupdate</title>
<polygon fill="none" stroke="gray" points="20,-481 20,-783 292,-783 292,-481 20,-481"/>
<text text-anchor="middle" x="156" y="-767.8" font-family="Georgia" font-size="14.00">Scene.update()</text>
</g>
<g id="clust3" class="cluster"><title>cluster_worldupdate</title>
<polygon fill="none" stroke="gray" points="28,-489 28,-708 284,-708 284,-489 28,-489"/>
<text text-anchor="middle" x="156" y="-692.8" font-family="Georgia" font-size="14.00">World.update()</text>
</g>
<g id="clust6" class="cluster"><title>cluster_gamerendererrender</title>
<polygon fill="none" stroke="gray" points="58,-16 58,-235 254,-235 254,-16 58,-16"/>
<text text-anchor="middle" x="156" y="-219.8" font-family="Georgia" font-size="14.00">Game.renderer.render()</text>
</g>
<g id="clust4" class="cluster"><title>cluster_scenerender</title>
<polygon fill="none" stroke="gray" points="16,-243 16,-473 296,-473 296,-243 16,-243"/>
<text text-anchor="middle" x="156" y="-457.8" font-family="Georgia" font-size="14.00">Scene.render()</text>
</g>
<g id="clust5" class="cluster"><title>cluster_worldrender</title>
<polygon fill="none" stroke="gray" points="24,-251 24,-398 288,-398 288,-251 24,-251"/>
<text text-anchor="middle" x="156" y="-382.8" font-family="Georgia" font-size="14.00">World.render()</text>
</g>
<!-- SceneUpdateEvent -->
<g id="node1" class="node"><title>SceneUpdateEvent</title>
<ellipse fill="none" stroke="black" cx="156" cy="-734" rx="100.182" ry="18"/>
<text text-anchor="middle" x="156" y="-730.3" font-family="Georgia" font-size="14.00" fill="blue">Scene&#39;s &#39;update&#39; event</text>
</g>
<!-- WorldUpdateEvent -->
<g id="node2" class="node"><title>WorldUpdateEvent</title>
<ellipse fill="none" stroke="black" cx="156" cy="-659" rx="102.082" ry="18"/>
<text text-anchor="middle" x="156" y="-655.3" font-family="Georgia" font-size="14.00" fill="blue">World&#39;s &#39;update&#39; event</text>
</g>
<!-- SceneUpdateEvent&#45;&gt;WorldUpdateEvent -->
<g id="edge1" class="edge"><title>SceneUpdateEvent&#45;&gt;WorldUpdateEvent</title>
<path fill="none" stroke="black" d="M156,-715.7C156,-707.245 156,-696.869 156,-687.373"/>
<polygon fill="black" stroke="black" points="159.5,-687.176 156,-677.176 152.5,-687.176 159.5,-687.176"/>
</g>
<!-- GameObjectUpdate -->
<g id="node3" class="node"><title>GameObjectUpdate</title>
<polygon fill="none" stroke="black" points="246,-605 66,-605 66,-569 246,-569 246,-605"/>
<text text-anchor="middle" x="156" y="-583.3" font-family="Georgia" font-size="14.00">GameObject.update()</text>
</g>
<!-- WorldUpdateEvent&#45;&gt;GameObjectUpdate -->
<g id="edge2" class="edge"><title>WorldUpdateEvent&#45;&gt;GameObjectUpdate</title>
<path fill="none" stroke="black" d="M156,-640.697C156,-632.983 156,-623.712 156,-615.112"/>
<polygon fill="black" stroke="black" points="159.5,-615.104 156,-605.104 152.5,-615.104 159.5,-615.104"/>
</g>
<!-- WorldPostUpdateEvent -->
<g id="node4" class="node"><title>WorldPostUpdateEvent</title>
<ellipse fill="none" stroke="black" cx="156" cy="-515" rx="119.679" ry="18"/>
<text text-anchor="middle" x="156" y="-511.3" font-family="Georgia" font-size="14.00" fill="blue">World&#39;s &#39;postupdate&#39; event</text>
</g>
<!-- GameObjectUpdate&#45;&gt;WorldPostUpdateEvent -->
<g id="edge3" class="edge"><title>GameObjectUpdate&#45;&gt;WorldPostUpdateEvent</title>
<path fill="none" stroke="black" d="M156,-568.697C156,-560.983 156,-551.712 156,-543.112"/>
<polygon fill="black" stroke="black" points="159.5,-543.104 156,-533.104 152.5,-543.104 159.5,-543.104"/>
</g>
<!-- SceneRenderEvent -->
<g id="node5" class="node"><title>SceneRenderEvent</title>
<ellipse fill="none" stroke="black" cx="156" cy="-424" rx="98.5829" ry="18"/>
<text text-anchor="middle" x="156" y="-420.3" font-family="Georgia" font-size="14.00" fill="blue">Scene&#39;s &#39;render&#39; event</text>
</g>
<!-- WorldPostUpdateEvent&#45;&gt;SceneRenderEvent -->
<g id="edge4" class="edge"><title>WorldPostUpdateEvent&#45;&gt;SceneRenderEvent</title>
<path fill="none" stroke="black" d="M156,-496.84C156,-484.281 156,-466.979 156,-452.502"/>
<polygon fill="black" stroke="black" points="159.5,-452.107 156,-442.107 152.5,-452.107 159.5,-452.107"/>
</g>
<!-- BuildRenderList -->
<g id="node6" class="node"><title>BuildRenderList</title>
<polygon fill="none" stroke="black" points="246,-367 66,-367 66,-331 246,-331 246,-367"/>
<text text-anchor="middle" x="156" y="-345.3" font-family="Georgia" font-size="14.00">BuildRenderList()</text>
</g>
<!-- SceneRenderEvent&#45;&gt;BuildRenderList -->
<g id="edge5" class="edge"><title>SceneRenderEvent&#45;&gt;BuildRenderList</title>
<path fill="none" stroke="black" d="M156,-405.7C156,-397.245 156,-386.869 156,-377.373"/>
<polygon fill="black" stroke="black" points="159.5,-377.176 156,-367.176 152.5,-377.176 159.5,-377.176"/>
</g>
<!-- WorldRenderEvent -->
<g id="node7" class="node"><title>WorldRenderEvent</title>
<ellipse fill="none" stroke="black" cx="156" cy="-277" rx="124.278" ry="18"/>
<text text-anchor="middle" x="156" y="-273.3" font-family="Georgia" font-size="14.00" fill="blue">World&#39;s &#39;worldrender&#39; event</text>
</g>
<!-- BuildRenderList&#45;&gt;WorldRenderEvent -->
<g id="edge6" class="edge"><title>BuildRenderList&#45;&gt;WorldRenderEvent</title>
<path fill="none" stroke="black" d="M156,-330.697C156,-322.983 156,-313.712 156,-305.112"/>
<polygon fill="black" stroke="black" points="159.5,-305.104 156,-295.104 152.5,-305.104 159.5,-305.104"/>
</g>
<!-- WorldRender -->
<g id="node8" class="node"><title>WorldRender</title>
<polygon fill="none" stroke="black" points="246,-204 66,-204 66,-168 246,-168 246,-204"/>
<text text-anchor="middle" x="156" y="-182.3" font-family="Georgia" font-size="14.00">World.renderGL()</text>
</g>
<!-- WorldRenderEvent&#45;&gt;WorldRender -->
<g id="edge7" class="edge"><title>WorldRenderEvent&#45;&gt;WorldRender</title>
<path fill="none" stroke="black" d="M156,-258.84C156,-246.281 156,-228.979 156,-214.502"/>
<polygon fill="black" stroke="black" points="159.5,-214.107 156,-204.107 152.5,-214.107 159.5,-214.107"/>
</g>
<!-- GameObjectRender -->
<g id="node9" class="node"><title>GameObjectRender</title>
<polygon fill="none" stroke="black" points="246,-132 66,-132 66,-96 246,-96 246,-132"/>
<text text-anchor="middle" x="156" y="-110.3" font-family="Georgia" font-size="14.00">GameObject.renderGL()</text>
</g>
<!-- WorldRender&#45;&gt;GameObjectRender -->
<g id="edge8" class="edge"><title>WorldRender&#45;&gt;GameObjectRender</title>
<path fill="none" stroke="black" d="M156,-167.697C156,-159.983 156,-150.712 156,-142.112"/>
<polygon fill="black" stroke="black" points="159.5,-142.104 156,-132.104 152.5,-142.104 159.5,-142.104"/>
</g>
<!-- WorldPostRender -->
<g id="node10" class="node"><title>WorldPostRender</title>
<polygon fill="none" stroke="black" points="246,-60 66,-60 66,-24 246,-24 246,-60"/>
<text text-anchor="middle" x="156" y="-38.3" font-family="Georgia" font-size="14.00">World.postRenderGL()</text>
</g>
<!-- GameObjectRender&#45;&gt;WorldPostRender -->
<g id="edge9" class="edge"><title>GameObjectRender&#45;&gt;WorldPostRender</title>
<path fill="none" stroke="black" d="M156,-95.6966C156,-87.9827 156,-78.7125 156,-70.1124"/>
<polygon fill="black" stroke="black" points="159.5,-70.1043 156,-60.1043 152.5,-70.1044 159.5,-70.1043"/>
</g>
</g>
</svg>
