<?xml version="1.0" encoding="UTF-8" standalone="no"?>
<!DOCTYPE svg PUBLIC "-//W3C//DTD SVG 1.1//EN"
 "http://www.w3.org/Graphics/SVG/1.1/DTD/svg11.dtd">
<!-- Generated by graphviz version 2.38.0 (20140413.2041)
 -->
<!-- Title: UpdateLoop Pages: 1 -->
<svg width="320pt" height="615pt"
 viewBox="0.00 0.00 320.00 615.00" xmlns="http://www.w3.org/2000/svg" xmlns:xlink="http://www.w3.org/1999/xlink">
<g id="graph0" class="graph" transform="scale(1 1) rotate(0) translate(4 611)">
<title>UpdateLoop</title>
<polygon fill="white" stroke="none" points="-4,4 -4,-611 316,-611 316,4 -4,4"/>
<g id="clust1" class="cluster"><title>cluster_gamestep</title>
<polygon fill="none" stroke="gray" points="8,-8 8,-599 304,-599 304,-8 8,-8"/>
<text text-anchor="middle" x="156" y="-583.8" font-family="Georgia" font-size="14.00">Game.step()</text>
</g>
<g id="clust2" class="cluster"><title>cluster_sceneupdate</title>
<polygon fill="none" stroke="gray" points="20,-266 20,-568 292,-568 292,-266 20,-266"/>
<text text-anchor="middle" x="156" y="-552.8" font-family="Georgia" font-size="14.00">Scene.update()</text>
</g>
<g id="clust3" class="cluster"><title>cluster_worldupdate</title>
<polygon fill="none" stroke="gray" points="28,-274 28,-493 284,-493 284,-274 28,-274"/>
<text text-anchor="middle" x="156" y="-477.8" font-family="Georgia" font-size="14.00">World.update()</text>
</g>
<g id="clust4" class="cluster"><title>cluster_scenerender</title>
<polygon fill="none" stroke="gray" points="16,-72 16,-258 296,-258 296,-72 16,-72"/>
<text text-anchor="middle" x="156" y="-242.8" font-family="Georgia" font-size="14.00">Scene.render()</text>
</g>
<g id="clust5" class="cluster"><title>cluster_worldrender</title>
<polygon fill="none" stroke="gray" points="24,-80 24,-227 288,-227 288,-80 24,-80"/>
<text text-anchor="middle" x="156" y="-211.8" font-family="Georgia" font-size="14.00">World.render()</text>
</g>
<!-- SceneUpdateEvent -->
<g id="node1" class="node"><title>SceneUpdateEvent</title>
<ellipse fill="none" stroke="black" cx="156" cy="-519" rx="100.182" ry="18"/>
<text text-anchor="middle" x="156" y="-515.3" font-family="Georgia" font-size="14.00" fill="blue">Scene&#39;s &#39;update&#39; event</text>
</g>
<!-- WorldUpdateEvent -->
<g id="node2" class="node"><title>WorldUpdateEvent</title>
<ellipse fill="none" stroke="black" cx="156" cy="-444" rx="102.082" ry="18"/>
<text text-anchor="middle" x="156" y="-440.3" font-family="Georgia" font-size="14.00" fill="blue">World&#39;s &#39;update&#39; event</text>
</g>
<!-- SceneUpdateEvent&#45;&gt;WorldUpdateEvent -->
<g id="edge1" class="edge"><title>SceneUpdateEvent&#45;&gt;WorldUpdateEvent</title>
<path fill="none" stroke="black" d="M156,-500.7C156,-492.245 156,-481.869 156,-472.373"/>
<polygon fill="black" stroke="black" points="159.5,-472.176 156,-462.176 152.5,-472.176 159.5,-472.176"/>
</g>
<!-- ChildrenUpdate -->
<g id="node3" class="node"><title>ChildrenUpdate</title>
<ellipse fill="none" stroke="black" cx="156" cy="-372" rx="70.6878" ry="18"/>
<text text-anchor="middle" x="156" y="-368.3" font-family="Georgia" font-size="14.00">Child.update()</text>
</g>
<!-- WorldUpdateEvent&#45;&gt;ChildrenUpdate -->
<g id="edge2" class="edge"><title>WorldUpdateEvent&#45;&gt;ChildrenUpdate</title>
<path fill="none" stroke="black" d="M156,-425.697C156,-417.983 156,-408.712 156,-400.112"/>
<polygon fill="black" stroke="black" points="159.5,-400.104 156,-390.104 152.5,-400.104 159.5,-400.104"/>
</g>
<!-- WorldPostUpdateEvent -->
<g id="node4" class="node"><title>WorldPostUpdateEvent</title>
<ellipse fill="none" stroke="black" cx="156" cy="-300" rx="119.679" ry="18"/>
<text text-anchor="middle" x="156" y="-296.3" font-family="Georgia" font-size="14.00" fill="blue">World&#39;s &#39;postupdate&#39; event</text>
</g>
<!-- ChildrenUpdate&#45;&gt;WorldPostUpdateEvent -->
<g id="edge3" class="edge"><title>ChildrenUpdate&#45;&gt;WorldPostUpdateEvent</title>
<path fill="none" stroke="black" d="M156,-353.697C156,-345.983 156,-336.712 156,-328.112"/>
<polygon fill="black" stroke="black" points="159.5,-328.104 156,-318.104 152.5,-328.104 159.5,-328.104"/>
</g>
<!-- BuildRenderList -->
<g id="node5" class="node"><title>BuildRenderList</title>
<ellipse fill="none" stroke="black" cx="156" cy="-178" rx="77.9862" ry="18"/>
<text text-anchor="middle" x="156" y="-174.3" font-family="Georgia" font-size="14.00">BuildRenderList</text>
</g>
<!-- WorldPostUpdateEvent&#45;&gt;BuildRenderList -->
<g id="edge4" class="edge"><title>WorldPostUpdateEvent&#45;&gt;BuildRenderList</title>
<path fill="none" stroke="black" d="M156,-281.807C156,-262.114 156,-229.583 156,-206.39"/>
<polygon fill="black" stroke="black" points="159.5,-206.161 156,-196.161 152.5,-206.161 159.5,-206.161"/>
</g>
<!-- WorldRenderEvent -->
<g id="node6" class="node"><title>WorldRenderEvent</title>
<ellipse fill="none" stroke="black" cx="156" cy="-106" rx="124.278" ry="18"/>
<text text-anchor="middle" x="156" y="-102.3" font-family="Georgia" font-size="14.00" fill="blue">World&#39;s &#39;worldrender&#39; event</text>
</g>
<!-- BuildRenderList&#45;&gt;WorldRenderEvent -->
<g id="edge5" class="edge"><title>BuildRenderList&#45;&gt;WorldRenderEvent</title>
<path fill="none" stroke="black" d="M156,-159.697C156,-151.983 156,-142.712 156,-134.112"/>
<polygon fill="black" stroke="black" points="159.5,-134.104 156,-124.104 152.5,-134.104 159.5,-134.104"/>
</g>
<!-- GameRendererRender -->
<g id="node7" class="node"><title>GameRendererRender</title>
<ellipse fill="none" stroke="black" cx="156" cy="-34" rx="109.681" ry="18"/>
<text text-anchor="middle" x="156" y="-30.3" font-family="Georgia" font-size="14.00">Game.renderer.render()</text>
</g>
<!-- WorldRenderEvent&#45;&gt;GameRendererRender -->
<g id="edge6" class="edge"><title>WorldRenderEvent&#45;&gt;GameRendererRender</title>
<path fill="none" stroke="black" d="M156,-87.6966C156,-79.9827 156,-70.7125 156,-62.1124"/>
<polygon fill="black" stroke="black" points="159.5,-62.1043 156,-52.1043 152.5,-62.1044 159.5,-62.1043"/>
</g>
</g>
</svg>
