<?xml version="1.0" encoding="UTF-8" standalone="no"?>
<!DOCTYPE svg PUBLIC "-//W3C//DTD SVG 1.1//EN"
 "http://www.w3.org/Graphics/SVG/1.1/DTD/svg11.dtd">
<!-- Generated by graphviz version 2.38.0 (20140413.2041)
 -->
<!-- Title: Game Pages: 1 -->
<svg width="454pt" height="361pt"
 viewBox="0.00 0.00 454.00 361.00" xmlns="http://www.w3.org/2000/svg" xmlns:xlink="http://www.w3.org/1999/xlink">
<g id="graph0" class="graph" transform="scale(1 1) rotate(0) translate(4 357)">
<title>Game</title>
<polygon fill="white" stroke="none" points="-4,4 -4,-357 450,-357 450,4 -4,4"/>
<g id="clust1" class="cluster"><title>cluster_go</title>
<polygon fill="none" stroke="gray" points="8,-8 8,-132 438,-132 438,-8 8,-8"/>
</g>
<!-- Game -->
<g id="node1" class="node"><title>Game</title>
<polygon fill="none" stroke="black" points="256.5,-306.5 256.5,-352.5 369.5,-352.5 369.5,-306.5 256.5,-306.5"/>
<text text-anchor="middle" x="313" y="-337.3" font-family="Georgia" font-size="14.00">Game</text>
<polyline fill="none" stroke="black" points="256.5,-329.5 369.5,-329.5 "/>
<text text-anchor="middle" x="313" y="-314.3" font-family="Georgia" font-size="14.00">Scene manager</text>
</g>
<!-- Scene0 -->
<g id="node2" class="node"><title>Scene0</title>
<polygon fill="none" stroke="black" points="214,-233.5 214,-269.5 268,-269.5 268,-233.5 214,-233.5"/>
<text text-anchor="middle" x="241" y="-247.8" font-family="Georgia" font-size="14.00">Scene</text>
</g>
<!-- Game&#45;&gt;Scene0 -->
<g id="edge1" class="edge"><title>Game&#45;&gt;Scene0</title>
<path fill="none" stroke="black" d="M291.787,-306.109C283.232,-297.078 273.328,-286.624 264.55,-277.358"/>
<polygon fill="black" stroke="black" points="266.914,-274.765 257.496,-269.912 261.832,-279.579 266.914,-274.765"/>
</g>
<!-- Scene1 -->
<g id="node3" class="node"><title>Scene1</title>
<polygon fill="none" stroke="black" points="286,-233.5 286,-269.5 340,-269.5 340,-233.5 286,-233.5"/>
<text text-anchor="middle" x="313" y="-247.8" font-family="Georgia" font-size="14.00">Scene</text>
</g>
<!-- Game&#45;&gt;Scene1 -->
<g id="edge2" class="edge"><title>Game&#45;&gt;Scene1</title>
<path fill="none" stroke="black" d="M313,-306.109C313,-297.981 313,-288.7 313,-280.171"/>
<polygon fill="black" stroke="black" points="316.5,-279.912 313,-269.912 309.5,-279.912 316.5,-279.912"/>
</g>
<!-- Scene2 -->
<g id="node4" class="node"><title>Scene2</title>
<polygon fill="none" stroke="black" points="358,-233.5 358,-269.5 412,-269.5 412,-233.5 358,-233.5"/>
<text text-anchor="middle" x="385" y="-247.8" font-family="Georgia" font-size="14.00">Scene</text>
</g>
<!-- Game&#45;&gt;Scene2 -->
<g id="edge3" class="edge"><title>Game&#45;&gt;Scene2</title>
<path fill="none" stroke="black" d="M334.213,-306.109C342.768,-297.078 352.672,-286.624 361.45,-277.358"/>
<polygon fill="black" stroke="black" points="364.168,-279.579 368.504,-269.912 359.086,-274.765 364.168,-279.579"/>
</g>
<!-- World0 -->
<g id="node5" class="node"><title>World0</title>
<polygon fill="none" stroke="black" points="123,-160.5 123,-196.5 179,-196.5 179,-160.5 123,-160.5"/>
<text text-anchor="middle" x="151" y="-174.8" font-family="Georgia" font-size="14.00">World</text>
</g>
<!-- Scene0&#45;&gt;World0 -->
<g id="edge4" class="edge"><title>Scene0&#45;&gt;World0</title>
<path fill="none" stroke="black" stroke-dasharray="5,2" d="M219.214,-233.313C207.606,-224.156 193.161,-212.76 180.555,-202.816"/>
<polygon fill="black" stroke="black" points="182.605,-199.975 172.586,-196.529 178.269,-205.47 182.605,-199.975"/>
</g>
<!-- World1 -->
<g id="node6" class="node"><title>World1</title>
<polygon fill="none" stroke="black" points="267,-160.5 267,-196.5 323,-196.5 323,-160.5 267,-160.5"/>
<text text-anchor="middle" x="295" y="-174.8" font-family="Georgia" font-size="14.00">World</text>
</g>
<!-- Scene0&#45;&gt;World1 -->
<g id="edge5" class="edge"><title>Scene0&#45;&gt;World1</title>
<path fill="none" stroke="black" stroke-dasharray="5,2" d="M254.072,-233.313C260.638,-224.679 268.719,-214.055 275.96,-204.534"/>
<polygon fill="black" stroke="black" points="278.781,-206.607 282.048,-196.529 273.209,-202.37 278.781,-206.607"/>
</g>
<!-- GO00 -->
<g id="node7" class="node"><title>GO00</title>
<ellipse fill="none" stroke="black" cx="187" cy="-106" rx="27" ry="18"/>
<text text-anchor="middle" x="187" y="-102.3" font-family="Georgia" font-size="14.00">GO</text>
</g>
<!-- World0&#45;&gt;GO00 -->
<g id="edge6" class="edge"><title>World0&#45;&gt;GO00</title>
<path fill="none" stroke="black" d="M159.715,-160.434C163.977,-152.086 169.197,-141.865 173.925,-132.606"/>
<polygon fill="black" stroke="black" points="177.183,-133.921 178.614,-123.423 170.949,-130.738 177.183,-133.921"/>
</g>
<!-- GO01 -->
<g id="node8" class="node"><title>GO01</title>
<ellipse fill="none" stroke="black" cx="115" cy="-106" rx="27" ry="18"/>
<text text-anchor="middle" x="115" y="-102.3" font-family="Georgia" font-size="14.00">GO</text>
</g>
<!-- World0&#45;&gt;GO01 -->
<g id="edge7" class="edge"><title>World0&#45;&gt;GO01</title>
<path fill="none" stroke="black" d="M142.285,-160.434C138.023,-152.086 132.803,-141.865 128.075,-132.606"/>
<polygon fill="black" stroke="black" points="131.051,-130.738 123.386,-123.423 124.817,-133.921 131.051,-130.738"/>
</g>
<!-- GO02 -->
<g id="node9" class="node"><title>GO02</title>
<ellipse fill="none" stroke="black" cx="43" cy="-106" rx="27" ry="18"/>
<text text-anchor="middle" x="43" y="-102.3" font-family="Georgia" font-size="14.00">GO</text>
</g>
<!-- World0&#45;&gt;GO02 -->
<g id="edge8" class="edge"><title>World0&#45;&gt;GO02</title>
<path fill="none" stroke="black" d="M124.856,-160.434C108.422,-149.706 87.248,-135.884 70.5526,-124.986"/>
<polygon fill="black" stroke="black" points="72.0837,-121.806 61.7967,-119.27 68.2573,-127.667 72.0837,-121.806"/>
</g>
<!-- GO10 -->
<g id="node10" class="node"><title>GO10</title>
<ellipse fill="none" stroke="black" cx="403" cy="-106" rx="27" ry="18"/>
<text text-anchor="middle" x="403" y="-102.3" font-family="Georgia" font-size="14.00">GO</text>
</g>
<!-- World1&#45;&gt;GO10 -->
<g id="edge9" class="edge"><title>World1&#45;&gt;GO10</title>
<path fill="none" stroke="black" d="M321.144,-160.434C337.578,-149.706 358.752,-135.884 375.447,-124.986"/>
<polygon fill="black" stroke="black" points="377.743,-127.667 384.203,-119.27 373.916,-121.806 377.743,-127.667"/>
</g>
<!-- GO11 -->
<g id="node11" class="node"><title>GO11</title>
<ellipse fill="none" stroke="black" cx="331" cy="-106" rx="27" ry="18"/>
<text text-anchor="middle" x="331" y="-102.3" font-family="Georgia" font-size="14.00">GO</text>
</g>
<!-- World1&#45;&gt;GO11 -->
<g id="edge10" class="edge"><title>World1&#45;&gt;GO11</title>
<path fill="none" stroke="black" d="M303.715,-160.434C307.977,-152.086 313.197,-141.865 317.925,-132.606"/>
<polygon fill="black" stroke="black" points="321.183,-133.921 322.614,-123.423 314.949,-130.738 321.183,-133.921"/>
</g>
<!-- GO12 -->
<g id="node12" class="node"><title>GO12</title>
<ellipse fill="none" stroke="black" cx="259" cy="-106" rx="27" ry="18"/>
<text text-anchor="middle" x="259" y="-102.3" font-family="Georgia" font-size="14.00">GO</text>
</g>
<!-- World1&#45;&gt;GO12 -->
<g id="edge11" class="edge"><title>World1&#45;&gt;GO12</title>
<path fill="none" stroke="black" d="M286.285,-160.434C282.023,-152.086 276.803,-141.865 272.075,-132.606"/>
<polygon fill="black" stroke="black" points="275.051,-130.738 267.386,-123.423 268.817,-133.921 275.051,-130.738"/>
</g>
<!-- GO000 -->
<g id="node13" class="node"><title>GO000</title>
<ellipse fill="none" stroke="black" cx="151" cy="-34" rx="27" ry="18"/>
<text text-anchor="middle" x="151" y="-30.3" font-family="Georgia" font-size="14.00">GO</text>
</g>
<!-- GO00&#45;&gt;GO000 -->
<g id="edge12" class="edge"><title>GO00&#45;&gt;GO000</title>
<path fill="none" stroke="black" d="M178.65,-88.7646C174.288,-80.2831 168.853,-69.7144 163.959,-60.1974"/>
<polygon fill="black" stroke="black" points="166.99,-58.4395 159.304,-51.1473 160.765,-61.6409 166.99,-58.4395"/>
</g>
<!-- GO001 -->
<g id="node14" class="node"><title>GO001</title>
<ellipse fill="none" stroke="black" cx="223" cy="-34" rx="27" ry="18"/>
<text text-anchor="middle" x="223" y="-30.3" font-family="Georgia" font-size="14.00">GO</text>
</g>
<!-- GO00&#45;&gt;GO001 -->
<g id="edge13" class="edge"><title>GO00&#45;&gt;GO001</title>
<path fill="none" stroke="black" d="M195.35,-88.7646C199.712,-80.2831 205.147,-69.7144 210.041,-60.1974"/>
<polygon fill="black" stroke="black" points="213.235,-61.6409 214.696,-51.1473 207.01,-58.4395 213.235,-61.6409"/>
</g>
</g>
</svg>
