<?xml version="1.0" encoding="UTF-8" standalone="no"?>
<!DOCTYPE svg PUBLIC "-//W3C//DTD SVG 1.1//EN"
 "http://www.w3.org/Graphics/SVG/1.1/DTD/svg11.dtd">
<!-- Generated by graphviz version 2.38.0 (20140413.2041)
 -->
<!-- Title: Game Pages: 1 -->
<svg width="458pt" height="483pt"
 viewBox="0.00 0.00 458.00 483.00" xmlns="http://www.w3.org/2000/svg" xmlns:xlink="http://www.w3.org/1999/xlink">
<g id="graph0" class="graph" transform="scale(1 1) rotate(0) translate(4 479)">
<title>Game</title>
<polygon fill="white" stroke="none" points="-4,4 -4,-479 454,-479 454,4 -4,4"/>
<!-- App -->
<g id="node1" class="node"><title>App</title>
<polygon fill="none" stroke="black" points="287,-438.5 287,-474.5 341,-474.5 341,-438.5 287,-438.5"/>
<text text-anchor="middle" x="314" y="-452.8" font-family="Georgia" font-size="14.00">App</text>
</g>
<!-- Game -->
<g id="node2" class="node"><title>Game</title>
<polygon fill="none" stroke="black" points="287,-365.5 287,-401.5 341,-401.5 341,-365.5 287,-365.5"/>
<text text-anchor="middle" x="314" y="-379.8" font-family="Georgia" font-size="14.00">Game</text>
</g>
<!-- App&#45;&gt;Game -->
<g id="edge1" class="edge"><title>App&#45;&gt;Game</title>
<path fill="none" stroke="black" d="M314,-438.313C314,-430.289 314,-420.547 314,-411.569"/>
<polygon fill="black" stroke="black" points="317.5,-411.529 314,-401.529 310.5,-411.529 317.5,-411.529"/>
</g>
<!-- SceneManager -->
<g id="node3" class="node"><title>SceneManager</title>
<polygon fill="none" stroke="black" points="257.5,-292.5 257.5,-328.5 370.5,-328.5 370.5,-292.5 257.5,-292.5"/>
<text text-anchor="middle" x="314" y="-306.8" font-family="Georgia" font-size="14.00">Scene manager</text>
</g>
<!-- Game&#45;&gt;SceneManager -->
<g id="edge2" class="edge"><title>Game&#45;&gt;SceneManager</title>
<path fill="none" stroke="black" d="M314,-365.313C314,-357.289 314,-347.547 314,-338.569"/>
<polygon fill="black" stroke="black" points="317.5,-338.529 314,-328.529 310.5,-338.529 317.5,-338.529"/>
</g>
<!-- Scene0 -->
<g id="node4" class="node"><title>Scene0</title>
<polygon fill="none" stroke="black" points="215,-219.5 215,-255.5 269,-255.5 269,-219.5 215,-219.5"/>
<text text-anchor="middle" x="242" y="-233.8" font-family="Georgia" font-size="14.00">Scene</text>
</g>
<!-- SceneManager&#45;&gt;Scene0 -->
<g id="edge3" class="edge"><title>SceneManager&#45;&gt;Scene0</title>
<path fill="none" stroke="black" d="M296.571,-292.313C287.55,-283.417 276.387,-272.409 266.512,-262.672"/>
<polygon fill="black" stroke="black" points="268.847,-260.058 259.269,-255.529 263.932,-265.042 268.847,-260.058"/>
</g>
<!-- Scene1 -->
<g id="node5" class="node"><title>Scene1</title>
<polygon fill="none" stroke="black" points="287,-219.5 287,-255.5 341,-255.5 341,-219.5 287,-219.5"/>
<text text-anchor="middle" x="314" y="-233.8" font-family="Georgia" font-size="14.00">Scene</text>
</g>
<!-- SceneManager&#45;&gt;Scene1 -->
<g id="edge4" class="edge"><title>SceneManager&#45;&gt;Scene1</title>
<path fill="none" stroke="black" d="M314,-292.313C314,-284.289 314,-274.547 314,-265.569"/>
<polygon fill="black" stroke="black" points="317.5,-265.529 314,-255.529 310.5,-265.529 317.5,-265.529"/>
</g>
<!-- Scene2 -->
<g id="node6" class="node"><title>Scene2</title>
<polygon fill="none" stroke="black" points="359,-219.5 359,-255.5 413,-255.5 413,-219.5 359,-219.5"/>
<text text-anchor="middle" x="386" y="-233.8" font-family="Georgia" font-size="14.00">Scene</text>
</g>
<!-- SceneManager&#45;&gt;Scene2 -->
<g id="edge5" class="edge"><title>SceneManager&#45;&gt;Scene2</title>
<path fill="none" stroke="black" d="M331.429,-292.313C340.45,-283.417 351.613,-272.409 361.488,-262.672"/>
<polygon fill="black" stroke="black" points="364.068,-265.042 368.731,-255.529 359.153,-260.058 364.068,-265.042"/>
</g>
<!-- World0 -->
<g id="node7" class="node"><title>World0</title>
<polygon fill="none" stroke="black" points="142,-146.5 142,-182.5 198,-182.5 198,-146.5 142,-146.5"/>
<text text-anchor="middle" x="170" y="-160.8" font-family="Georgia" font-size="14.00">World</text>
</g>
<!-- Scene0&#45;&gt;World0 -->
<g id="edge6" class="edge"><title>Scene0&#45;&gt;World0</title>
<path fill="none" stroke="black" d="M224.571,-219.313C215.55,-210.417 204.387,-199.409 194.512,-189.672"/>
<polygon fill="black" stroke="black" points="196.847,-187.058 187.269,-182.529 191.932,-192.042 196.847,-187.058"/>
</g>
<!-- World1 -->
<g id="node8" class="node"><title>World1</title>
<polygon fill="none" stroke="black" points="287,-146.5 287,-182.5 343,-182.5 343,-146.5 287,-146.5"/>
<text text-anchor="middle" x="315" y="-160.8" font-family="Georgia" font-size="14.00">World</text>
</g>
<!-- Scene0&#45;&gt;World1 -->
<g id="edge7" class="edge"><title>Scene0&#45;&gt;World1</title>
<path fill="none" stroke="black" d="M259.671,-219.313C268.817,-210.417 280.135,-199.409 290.147,-189.672"/>
<polygon fill="black" stroke="black" points="292.763,-192.01 297.491,-182.529 287.883,-186.992 292.763,-192.01"/>
</g>
<!-- GO00 -->
<g id="node9" class="node"><title>GO00</title>
<polygon fill="none" stroke="black" points="36,-73.5 36,-109.5 90,-109.5 90,-73.5 36,-73.5"/>
<text text-anchor="middle" x="63" y="-87.8" font-family="Georgia" font-size="14.00">GO</text>
</g>
<!-- World0&#45;&gt;GO00 -->
<g id="edge8" class="edge"><title>World0&#45;&gt;GO00</title>
<path fill="none" stroke="black" d="M144.371,-146.494C130.313,-137.166 112.693,-125.474 97.448,-115.358"/>
<polygon fill="black" stroke="black" points="99.0585,-112.226 88.7909,-109.614 95.1882,-118.059 99.0585,-112.226"/>
</g>
<!-- GO01 -->
<g id="node10" class="node"><title>GO01</title>
<polygon fill="none" stroke="black" points="108,-73.5 108,-109.5 162,-109.5 162,-73.5 108,-73.5"/>
<text text-anchor="middle" x="135" y="-87.8" font-family="Georgia" font-size="14.00">GO</text>
</g>
<!-- World0&#45;&gt;GO01 -->
<g id="edge9" class="edge"><title>World0&#45;&gt;GO01</title>
<path fill="none" stroke="black" d="M161.527,-146.313C157.443,-138.028 152.456,-127.91 147.912,-118.693"/>
<polygon fill="black" stroke="black" points="150.955,-116.951 143.395,-109.529 144.677,-120.046 150.955,-116.951"/>
</g>
<!-- GO02 -->
<g id="node11" class="node"><title>GO02</title>
<polygon fill="none" stroke="black" points="180,-73.5 180,-109.5 234,-109.5 234,-73.5 180,-73.5"/>
<text text-anchor="middle" x="207" y="-87.8" font-family="Georgia" font-size="14.00">GO</text>
</g>
<!-- World0&#45;&gt;GO02 -->
<g id="edge10" class="edge"><title>World0&#45;&gt;GO02</title>
<path fill="none" stroke="black" d="M178.957,-146.313C183.32,-137.941 188.658,-127.697 193.501,-118.403"/>
<polygon fill="black" stroke="black" points="196.608,-120.014 198.126,-109.529 190.401,-116.779 196.608,-120.014"/>
</g>
<!-- GO10 -->
<g id="node12" class="node"><title>GO10</title>
<polygon fill="none" stroke="black" points="252,-73.5 252,-109.5 306,-109.5 306,-73.5 252,-73.5"/>
<text text-anchor="middle" x="279" y="-87.8" font-family="Georgia" font-size="14.00">GO</text>
</g>
<!-- World1&#45;&gt;GO10 -->
<g id="edge11" class="edge"><title>World1&#45;&gt;GO10</title>
<path fill="none" stroke="black" d="M306.285,-146.313C302.085,-138.028 296.955,-127.91 292.281,-118.693"/>
<polygon fill="black" stroke="black" points="295.278,-116.865 287.634,-109.529 289.035,-120.031 295.278,-116.865"/>
</g>
<!-- GO11 -->
<g id="node13" class="node"><title>GO11</title>
<polygon fill="none" stroke="black" points="324,-73.5 324,-109.5 378,-109.5 378,-73.5 324,-73.5"/>
<text text-anchor="middle" x="351" y="-87.8" font-family="Georgia" font-size="14.00">GO</text>
</g>
<!-- World1&#45;&gt;GO11 -->
<g id="edge12" class="edge"><title>World1&#45;&gt;GO11</title>
<path fill="none" stroke="black" d="M323.715,-146.313C327.915,-138.028 333.045,-127.91 337.719,-118.693"/>
<polygon fill="black" stroke="black" points="340.965,-120.031 342.366,-109.529 334.722,-116.865 340.965,-120.031"/>
</g>
<!-- GO12 -->
<g id="node14" class="node"><title>GO12</title>
<polygon fill="none" stroke="black" points="396,-73.5 396,-109.5 450,-109.5 450,-73.5 396,-73.5"/>
<text text-anchor="middle" x="423" y="-87.8" font-family="Georgia" font-size="14.00">GO</text>
</g>
<!-- World1&#45;&gt;GO12 -->
<g id="edge13" class="edge"><title>World1&#45;&gt;GO12</title>
<path fill="none" stroke="black" d="M340.869,-146.494C355.058,-137.166 372.842,-125.474 388.23,-115.358"/>
<polygon fill="black" stroke="black" points="390.535,-118.032 396.968,-109.614 386.689,-112.182 390.535,-118.032"/>
</g>
<!-- GO000 -->
<g id="node15" class="node"><title>GO000</title>
<polygon fill="none" stroke="black" points="0,-0.5 0,-36.5 54,-36.5 54,-0.5 0,-0.5"/>
<text text-anchor="middle" x="27" y="-14.8" font-family="Georgia" font-size="14.00">GO</text>
</g>
<!-- GO00&#45;&gt;GO000 -->
<g id="edge14" class="edge"><title>GO00&#45;&gt;GO000</title>
<path fill="none" stroke="black" d="M54.2854,-73.3129C50.0846,-65.0279 44.9545,-54.9103 40.2811,-45.6933"/>
<polygon fill="black" stroke="black" points="43.2784,-43.865 35.6343,-36.5288 37.0351,-47.0307 43.2784,-43.865"/>
</g>
<!-- GO001 -->
<g id="node16" class="node"><title>GO001</title>
<polygon fill="none" stroke="black" points="72,-0.5 72,-36.5 126,-36.5 126,-0.5 72,-0.5"/>
<text text-anchor="middle" x="99" y="-14.8" font-family="Georgia" font-size="14.00">GO</text>
</g>
<!-- GO00&#45;&gt;GO001 -->
<g id="edge15" class="edge"><title>GO00&#45;&gt;GO001</title>
<path fill="none" stroke="black" d="M71.7146,-73.3129C75.9154,-65.0279 81.0455,-54.9103 85.7189,-45.6933"/>
<polygon fill="black" stroke="black" points="88.9649,-47.0307 90.3657,-36.5288 82.7216,-43.865 88.9649,-47.0307"/>
</g>
</g>
</svg>
