<?xml version="1.0" encoding="UTF-8" standalone="no"?>
<!DOCTYPE svg PUBLIC "-//W3C//DTD SVG 1.1//EN"
 "http://www.w3.org/Graphics/SVG/1.1/DTD/svg11.dtd">
<!-- Generated by graphviz version 2.38.0 (20140413.2041)
 -->
<!-- Title: ClassTree Pages: 1 -->
<svg width="551pt" height="83pt"
 viewBox="0.00 0.00 550.93 82.95" xmlns="http://www.w3.org/2000/svg" xmlns:xlink="http://www.w3.org/1999/xlink">
<g id="graph0" class="graph" transform="scale(1 1) rotate(0) translate(4 78.9533)">
<title>ClassTree</title>
<polygon fill="white" stroke="none" points="-4,4 -4,-78.9533 546.933,-78.9533 546.933,4 -4,4"/>
<!-- GameObject -->
<g id="node1" class="node"><title>GameObject</title>
<ellipse fill="none" stroke="black" cx="67.8823" cy="-37.4767" rx="67.7647" ry="26.7407"/>
<text text-anchor="middle" x="67.8823" y="-41.2767" font-family="Georgia" font-size="14.00">GameObject</text>
<text text-anchor="middle" x="67.8823" y="-26.2767" font-family="Georgia" font-size="14.00">(Children)</text>
</g>
<!-- GOLayer -->
<g id="node2" class="node"><title>GOLayer</title>
<ellipse fill="none" stroke="black" cx="264.395" cy="-37.4767" rx="92.7622" ry="37.4533"/>
<text text-anchor="middle" x="264.395" y="-48.7767" font-family="Georgia" font-size="14.00">Layer</text>
<text text-anchor="middle" x="264.395" y="-33.7767" font-family="Georgia" font-size="14.00">(Bypass transfom,</text>
<text text-anchor="middle" x="264.395" y="-18.7767" font-family="Georgia" font-size="14.00">visible)</text>
</g>
<!-- GameObject&#45;&gt;GOLayer -->
<g id="edge1" class="edge"><title>GameObject&#45;&gt;GOLayer</title>
<path fill="none" stroke="black" d="M135.823,-37.4767C144.116,-37.4767 152.737,-37.4767 161.407,-37.4767"/>
<polygon fill="black" stroke="black" points="161.592,-40.9768 171.592,-37.4767 161.592,-33.9768 161.592,-40.9768"/>
</g>
<!-- SpriteBatch -->
<g id="node3" class="node"><title>SpriteBatch</title>
<ellipse fill="none" stroke="black" cx="467.98" cy="-37.4767" rx="74.9067" ry="37.4533"/>
<text text-anchor="middle" x="467.98" y="-48.7767" font-family="Georgia" font-size="14.00">SpriteBatch</text>
<text text-anchor="middle" x="467.98" y="-33.7767" font-family="Georgia" font-size="14.00">(Draw texture</text>
<text text-anchor="middle" x="467.98" y="-18.7767" font-family="Georgia" font-size="14.00">many times)</text>
</g>
<!-- GOLayer&#45;&gt;SpriteBatch -->
<g id="edge2" class="edge"><title>GOLayer&#45;&gt;SpriteBatch</title>
<path fill="none" stroke="black" d="M357.045,-37.4767C365.548,-37.4767 374.139,-37.4767 382.573,-37.4767"/>
<polygon fill="black" stroke="black" points="382.765,-40.9768 392.765,-37.4767 382.765,-33.9768 382.765,-40.9768"/>
</g>
</g>
</svg>
