<?xml version="1.0" encoding="UTF-8" standalone="no"?>
<!DOCTYPE svg PUBLIC "-//W3C//DTD SVG 1.1//EN"
 "http://www.w3.org/Graphics/SVG/1.1/DTD/svg11.dtd">
<!-- Generated by graphviz version 2.38.0 (20140413.2041)
 -->
<!-- Title: ClassTree Pages: 1 -->
<svg width="515pt" height="350pt"
 viewBox="0.00 0.00 514.84 349.74" xmlns="http://www.w3.org/2000/svg" xmlns:xlink="http://www.w3.org/1999/xlink">
<g id="graph0" class="graph" transform="scale(1 1) rotate(0) translate(4 345.74)">
<title>ClassTree</title>
<polygon fill="white" stroke="none" points="-4,4 -4,-345.74 510.841,-345.74 510.841,4 -4,4"/>
<!-- BuiltInContainer -->
<g id="node1" class="node"><title>BuiltInContainer</title>
<ellipse fill="none" stroke="black" cx="206.147" cy="-314.87" rx="56.6372" ry="26.7407"/>
<text text-anchor="middle" x="206.147" y="-318.67" font-family="Georgia" font-size="14.00">Build&#45;in</text>
<text text-anchor="middle" x="206.147" y="-303.67" font-family="Georgia" font-size="14.00">Container</text>
</g>
<!-- Container -->
<g id="node2" class="node"><title>Container</title>
<ellipse fill="none" stroke="black" cx="206.147" cy="-234" rx="51.9908" ry="18"/>
<text text-anchor="middle" x="206.147" y="-230.3" font-family="Georgia" font-size="14.00">Container</text>
</g>
<!-- BuiltInContainer&#45;&gt;Container -->
<g id="edge1" class="edge"><title>BuiltInContainer&#45;&gt;Container</title>
<path fill="none" stroke="black" d="M206.147,-287.607C206.147,-279.506 206.147,-270.568 206.147,-262.392"/>
<polygon fill="black" stroke="black" points="209.647,-262.22 206.147,-252.22 202.647,-262.22 209.647,-262.22"/>
</g>
<!-- BaseSizer -->
<g id="node3" class="node"><title>BaseSizer</title>
<ellipse fill="none" stroke="black" cx="206.147" cy="-162" rx="50.0912" ry="18"/>
<text text-anchor="middle" x="206.147" y="-158.3" font-family="Georgia" font-size="14.00">BaseSizer</text>
</g>
<!-- Container&#45;&gt;BaseSizer -->
<g id="edge2" class="edge"><title>Container&#45;&gt;BaseSizer</title>
<path fill="none" stroke="black" d="M206.147,-215.697C206.147,-207.983 206.147,-198.712 206.147,-190.112"/>
<polygon fill="black" stroke="black" points="209.647,-190.104 206.147,-180.104 202.647,-190.104 209.647,-190.104"/>
</g>
<!-- Sizer -->
<g id="node4" class="node"><title>Sizer</title>
<ellipse fill="none" stroke="black" cx="33.1471" cy="-90" rx="31.3957" ry="18"/>
<text text-anchor="middle" x="33.1471" y="-86.3" font-family="Georgia" font-size="14.00">Sizer</text>
</g>
<!-- BaseSizer&#45;&gt;Sizer -->
<g id="edge3" class="edge"><title>BaseSizer&#45;&gt;Sizer</title>
<path fill="none" stroke="black" d="M173.542,-148.245C146.566,-137.635 107.279,-122.052 73.1471,-108 71.1062,-107.16 69.0094,-106.29 66.8963,-105.407"/>
<polygon fill="black" stroke="black" points="68.2236,-102.169 57.6488,-101.517 65.509,-108.621 68.2236,-102.169"/>
</g>
<!-- GridSizer -->
<g id="node6" class="node"><title>GridSizer</title>
<ellipse fill="none" stroke="black" cx="132.147" cy="-90" rx="50.0912" ry="18"/>
<text text-anchor="middle" x="132.147" y="-86.3" font-family="Georgia" font-size="14.00">GridSizer</text>
</g>
<!-- BaseSizer&#45;&gt;GridSizer -->
<g id="edge5" class="edge"><title>BaseSizer&#45;&gt;GridSizer</title>
<path fill="none" stroke="black" d="M188.984,-144.765C179.364,-135.665 167.204,-124.162 156.603,-114.134"/>
<polygon fill="black" stroke="black" points="158.887,-111.477 149.217,-107.147 154.077,-116.562 158.887,-111.477"/>
</g>
<!-- FixedWidthSizer -->
<g id="node7" class="node"><title>FixedWidthSizer</title>
<ellipse fill="none" stroke="black" cx="281.147" cy="-90" rx="80.6858" ry="18"/>
<text text-anchor="middle" x="281.147" y="-86.3" font-family="Georgia" font-size="14.00">FixedWidthSizer</text>
</g>
<!-- BaseSizer&#45;&gt;FixedWidthSizer -->
<g id="edge6" class="edge"><title>BaseSizer&#45;&gt;FixedWidthSizer</title>
<path fill="none" stroke="black" d="M223.542,-144.765C233.153,-135.795 245.265,-124.49 255.9,-114.564"/>
<polygon fill="black" stroke="black" points="258.403,-117.015 263.326,-107.633 253.627,-111.898 258.403,-117.015"/>
</g>
<!-- OverlapSizer -->
<g id="node8" class="node"><title>OverlapSizer</title>
<ellipse fill="none" stroke="black" cx="443.147" cy="-90" rx="63.8893" ry="18"/>
<text text-anchor="middle" x="443.147" y="-86.3" font-family="Georgia" font-size="14.00">OverlapSizer</text>
</g>
<!-- BaseSizer&#45;&gt;OverlapSizer -->
<g id="edge7" class="edge"><title>BaseSizer&#45;&gt;OverlapSizer</title>
<path fill="none" stroke="black" d="M243.439,-149.985C283.19,-138.245 346.431,-119.566 391.081,-106.378"/>
<polygon fill="black" stroke="black" points="392.275,-109.675 400.874,-103.486 390.293,-102.962 392.275,-109.675"/>
</g>
<!-- Label -->
<g id="node5" class="node"><title>Label</title>
<ellipse fill="none" stroke="black" cx="33.1471" cy="-18" rx="33.2948" ry="18"/>
<text text-anchor="middle" x="33.1471" y="-14.3" font-family="Georgia" font-size="14.00">Label</text>
</g>
<!-- Sizer&#45;&gt;Label -->
<g id="edge4" class="edge"><title>Sizer&#45;&gt;Label</title>
<path fill="none" stroke="black" d="M33.1471,-71.6966C33.1471,-63.9827 33.1471,-54.7125 33.1471,-46.1124"/>
<polygon fill="black" stroke="black" points="36.6472,-46.1043 33.1471,-36.1043 29.6472,-46.1044 36.6472,-46.1043"/>
</g>
</g>
</svg>
