<?xml version="1.0" encoding="UTF-8" standalone="no"?>
<!DOCTYPE svg PUBLIC "-//W3C//DTD SVG 1.1//EN"
 "http://www.w3.org/Graphics/SVG/1.1/DTD/svg11.dtd">
<!-- Generated by graphviz version 2.38.0 (20140413.2041)
 -->
<!-- Title: ClassTree Pages: 1 -->
<svg width="1115pt" height="442pt"
 viewBox="0.00 0.00 1114.58 441.91" xmlns="http://www.w3.org/2000/svg" xmlns:xlink="http://www.w3.org/1999/xlink">
<g id="graph0" class="graph" transform="scale(1 1) rotate(0) translate(4 437.914)">
<title>ClassTree</title>
<polygon fill="white" stroke="none" points="-4,4 -4,-437.914 1110.58,-437.914 1110.58,4 -4,4"/>
<!-- GameObject -->
<g id="node1" class="node"><title>GameObject</title>
<ellipse fill="none" stroke="black" cx="905.782" cy="-407.044" rx="67.7647" ry="26.7407"/>
<text text-anchor="middle" x="905.782" y="-410.844" font-family="Georgia" font-size="14.00">GameObject</text>
<text text-anchor="middle" x="905.782" y="-395.844" font-family="Georgia" font-size="14.00">(Children)</text>
</g>
<!-- Container -->
<g id="node2" class="node"><title>Container</title>
<ellipse fill="none" stroke="black" cx="677.782" cy="-317.304" rx="67.3507" ry="26.7407"/>
<text text-anchor="middle" x="677.782" y="-321.104" font-family="Georgia" font-size="14.00">Container</text>
<text text-anchor="middle" x="677.782" y="-306.104" font-family="Georgia" font-size="14.00">(Transform)</text>
</g>
<!-- GameObject&#45;&gt;Container -->
<g id="edge1" class="edge"><title>GameObject&#45;&gt;Container</title>
<path fill="none" stroke="black" d="M858.263,-387.757C822.29,-373.914 772.74,-354.846 734.659,-340.191"/>
<polygon fill="black" stroke="black" points="735.829,-336.892 725.239,-336.566 733.315,-343.425 735.829,-336.892"/>
</g>
<!-- GOLayer -->
<g id="node6" class="node"><title>GOLayer</title>
<ellipse fill="none" stroke="black" cx="905.782" cy="-317.304" rx="33.5952" ry="18"/>
<text text-anchor="middle" x="905.782" y="-313.604" font-family="Georgia" font-size="14.00">Layer</text>
</g>
<!-- GameObject&#45;&gt;GOLayer -->
<g id="edge9" class="edge"><title>GameObject&#45;&gt;GOLayer</title>
<path fill="none" stroke="black" d="M905.782,-379.719C905.782,-368.967 905.782,-356.532 905.782,-345.675"/>
<polygon fill="black" stroke="black" points="909.282,-345.465 905.782,-335.465 902.282,-345.465 909.282,-345.465"/>
</g>
<!-- World -->
<g id="node14" class="node"><title>World</title>
<ellipse fill="none" stroke="black" cx="1011.78" cy="-317.304" rx="54.3945" ry="26.7407"/>
<text text-anchor="middle" x="1011.78" y="-321.104" font-family="Georgia" font-size="14.00">World</text>
<text text-anchor="middle" x="1011.78" y="-306.104" font-family="Georgia" font-size="14.00">(Camera)</text>
</g>
<!-- GameObject&#45;&gt;World -->
<g id="edge13" class="edge"><title>GameObject&#45;&gt;World</title>
<path fill="none" stroke="black" d="M934.188,-382.531C947.311,-371.668 963.02,-358.666 976.86,-347.21"/>
<polygon fill="black" stroke="black" points="979.288,-349.744 984.759,-340.671 974.824,-344.351 979.288,-349.744"/>
</g>
<!-- Sprite -->
<g id="node3" class="node"><title>Sprite</title>
<ellipse fill="none" stroke="black" cx="567.782" cy="-227.563" rx="54.3945" ry="26.7407"/>
<text text-anchor="middle" x="567.782" y="-231.363" font-family="Georgia" font-size="14.00">Sprite</text>
<text text-anchor="middle" x="567.782" y="-216.363" font-family="Georgia" font-size="14.00">(Texture)</text>
</g>
<!-- Container&#45;&gt;Sprite -->
<g id="edge2" class="edge"><title>Container&#45;&gt;Sprite</title>
<path fill="none" stroke="black" d="M648.593,-293.021C634.737,-281.97 618.055,-268.664 603.455,-257.018"/>
<polygon fill="black" stroke="black" points="605.59,-254.243 595.589,-250.744 601.225,-259.716 605.59,-254.243"/>
</g>
<!-- Text -->
<g id="node4" class="node"><title>Text</title>
<ellipse fill="none" stroke="black" cx="77.7817" cy="-127.217" rx="77.5641" ry="37.4533"/>
<text text-anchor="middle" x="77.7817" y="-138.517" font-family="Georgia" font-size="14.00">Text</text>
<text text-anchor="middle" x="77.7817" y="-123.517" font-family="Georgia" font-size="14.00">(Text&#45;&gt;Canvas</text>
<text text-anchor="middle" x="77.7817" y="-108.517" font-family="Georgia" font-size="14.00">&#45;&gt;Texture)</text>
</g>
<!-- Sprite&#45;&gt;Text -->
<g id="edge3" class="edge"><title>Sprite&#45;&gt;Text</title>
<path fill="none" stroke="black" d="M514.091,-222.523C436.005,-215.708 287.078,-199.156 164.782,-164.693 157.629,-162.678 150.278,-160.231 143.025,-157.568"/>
<polygon fill="black" stroke="black" points="143.813,-154.123 133.222,-153.825 141.316,-160.662 143.813,-154.123"/>
</g>
<!-- AnimatedSprite -->
<g id="node5" class="node"><title>AnimatedSprite</title>
<ellipse fill="none" stroke="black" cx="276.782" cy="-127.217" rx="103.476" ry="26.7407"/>
<text text-anchor="middle" x="276.782" y="-131.017" font-family="Georgia" font-size="14.00">AnimatedSprite</text>
<text text-anchor="middle" x="276.782" y="-116.017" font-family="Georgia" font-size="14.00">(Texture animation)</text>
</g>
<!-- Sprite&#45;&gt;AnimatedSprite -->
<g id="edge4" class="edge"><title>Sprite&#45;&gt;AnimatedSprite</title>
<path fill="none" stroke="black" d="M523.585,-211.627C476.938,-195.862 402.712,-170.776 347.831,-152.229"/>
<polygon fill="black" stroke="black" points="348.759,-148.848 338.165,-148.962 346.518,-155.479 348.759,-148.848"/>
</g>
<!-- rexBBCodeText -->
<g id="node10" class="node"><title>rexBBCodeText</title>
<ellipse fill="none" stroke="black" cx="479.782" cy="-127.217" rx="81.135" ry="37.4533"/>
<text text-anchor="middle" x="479.782" y="-138.517" font-family="Georgia" font-size="14.00" fill="blue">rexBBCodeText</text>
<text text-anchor="middle" x="479.782" y="-123.517" font-family="Georgia" font-size="14.00" fill="blue">(Text&#45;&gt;Canvas</text>
<text text-anchor="middle" x="479.782" y="-108.517" font-family="Georgia" font-size="14.00" fill="blue">&#45;&gt;Texture)</text>
</g>
<!-- Sprite&#45;&gt;rexBBCodeText -->
<g id="edge5" class="edge"><title>Sprite&#45;&gt;rexBBCodeText</title>
<path fill="none" stroke="black" d="M546.479,-202.756C537.635,-192.872 527.106,-181.105 517.056,-169.873"/>
<polygon fill="black" stroke="black" points="519.478,-167.331 510.201,-162.213 514.261,-171.999 519.478,-167.331"/>
</g>
<!-- rexTagText -->
<g id="node11" class="node"><title>rexTagText</title>
<ellipse fill="none" stroke="black" cx="656.782" cy="-127.217" rx="77.5641" ry="37.4533"/>
<text text-anchor="middle" x="656.782" y="-138.517" font-family="Georgia" font-size="14.00" fill="blue">rexTagText</text>
<text text-anchor="middle" x="656.782" y="-123.517" font-family="Georgia" font-size="14.00" fill="blue">(Text&#45;&gt;Canvas</text>
<text text-anchor="middle" x="656.782" y="-108.517" font-family="Georgia" font-size="14.00" fill="blue">&#45;&gt;Texture)</text>
</g>
<!-- Sprite&#45;&gt;rexTagText -->
<g id="edge6" class="edge"><title>Sprite&#45;&gt;rexTagText</title>
<path fill="none" stroke="black" d="M589.326,-202.756C598.355,-192.78 609.119,-180.885 619.369,-169.558"/>
<polygon fill="black" stroke="black" points="622.24,-171.602 626.355,-161.839 617.05,-166.905 622.24,-171.602"/>
</g>
<!-- rexCanvas -->
<g id="node12" class="node"><title>rexCanvas</title>
<ellipse fill="none" stroke="black" cx="848.782" cy="-127.217" rx="96.3333" ry="26.7407"/>
<text text-anchor="middle" x="848.782" y="-131.017" font-family="Georgia" font-size="14.00" fill="blue">rexCanvas</text>
<text text-anchor="middle" x="848.782" y="-116.017" font-family="Georgia" font-size="14.00" fill="blue">(Canvas&#45;&gt;Texture)</text>
</g>
<!-- Sprite&#45;&gt;rexCanvas -->
<g id="edge7" class="edge"><title>Sprite&#45;&gt;rexCanvas</title>
<path fill="none" stroke="black" d="M611.38,-211.305C656.658,-195.458 728.115,-170.449 780.814,-152.005"/>
<polygon fill="black" stroke="black" points="782.143,-155.248 790.425,-148.641 779.83,-148.641 782.143,-155.248"/>
</g>
<!-- RenderLayer -->
<g id="node7" class="node"><title>RenderLayer</title>
<ellipse fill="none" stroke="black" cx="905.782" cy="-227.563" rx="63.8893" ry="18"/>
<text text-anchor="middle" x="905.782" y="-223.863" font-family="Georgia" font-size="14.00">RenderLayer</text>
</g>
<!-- GOLayer&#45;&gt;RenderLayer -->
<g id="edge10" class="edge"><title>GOLayer&#45;&gt;RenderLayer</title>
<path fill="none" stroke="black" d="M905.782,-298.969C905.782,-286.632 905.782,-269.81 905.782,-255.703"/>
<polygon fill="black" stroke="black" points="909.282,-255.564 905.782,-245.564 902.282,-255.564 909.282,-255.564"/>
</g>
<!-- SpriteBatch -->
<g id="node9" class="node"><title>SpriteBatch</title>
<ellipse fill="none" stroke="black" cx="1046.78" cy="-227.563" rx="59.5901" ry="18"/>
<text text-anchor="middle" x="1046.78" y="-223.863" font-family="Georgia" font-size="14.00">SpriteBatch</text>
</g>
<!-- GOLayer&#45;&gt;SpriteBatch -->
<g id="edge12" class="edge"><title>GOLayer&#45;&gt;SpriteBatch</title>
<path fill="none" stroke="black" d="M926.891,-303.168C949.668,-288.994 986.268,-266.219 1013.04,-249.557"/>
<polygon fill="black" stroke="black" points="1015.07,-252.417 1021.71,-244.162 1011.38,-246.474 1015.07,-252.417"/>
</g>
<!-- EffectLayer -->
<g id="node8" class="node"><title>EffectLayer</title>
<ellipse fill="none" stroke="black" cx="1020.78" cy="-127.217" rx="57.6901" ry="18"/>
<text text-anchor="middle" x="1020.78" y="-123.517" font-family="Georgia" font-size="14.00">EffectLayer</text>
</g>
<!-- RenderLayer&#45;&gt;EffectLayer -->
<g id="edge11" class="edge"><title>RenderLayer&#45;&gt;EffectLayer</title>
<path fill="none" stroke="black" d="M924.772,-210.324C943.666,-194.166 972.826,-169.228 994.054,-151.074"/>
<polygon fill="black" stroke="black" points="996.438,-153.64 1001.76,-144.481 991.889,-148.32 996.438,-153.64"/>
</g>
<!-- rexMaskedImage -->
<g id="node13" class="node"><title>rexMaskedImage</title>
<ellipse fill="none" stroke="black" cx="848.782" cy="-26.8701" rx="96.3333" ry="26.7407"/>
<text text-anchor="middle" x="848.782" y="-30.6701" font-family="Georgia" font-size="14.00" fill="blue">rexMaskedImage</text>
<text text-anchor="middle" x="848.782" y="-15.6701" font-family="Georgia" font-size="14.00" fill="blue">(Canvas&#45;&gt;Texture)</text>
</g>
<!-- rexCanvas&#45;&gt;rexMaskedImage -->
<g id="edge8" class="edge"><title>rexCanvas&#45;&gt;rexMaskedImage</title>
<path fill="none" stroke="black" d="M848.782,-100.12C848.782,-89.0286 848.782,-75.9116 848.782,-63.9186"/>
<polygon fill="black" stroke="black" points="852.282,-63.7476 848.782,-53.7477 845.282,-63.7477 852.282,-63.7476"/>
</g>
</g>
</svg>
