<?xml version="1.0" encoding="UTF-8" standalone="no"?>
<!DOCTYPE svg PUBLIC "-//W3C//DTD SVG 1.1//EN"
 "http://www.w3.org/Graphics/SVG/1.1/DTD/svg11.dtd">
<!-- Generated by graphviz version 2.38.0 (20140413.2041)
 -->
<!-- Title: UpdateLoop Pages: 1 -->
<svg width="252pt" height="919pt"
 viewBox="0.00 0.00 252.00 918.70" xmlns="http://www.w3.org/2000/svg" xmlns:xlink="http://www.w3.org/1999/xlink">
<g id="graph0" class="graph" transform="scale(1 1) rotate(0) translate(4 914.701)">
<title>UpdateLoop</title>
<polygon fill="white" stroke="none" points="-4,4 -4,-914.701 248,-914.701 248,4 -4,4"/>
<g id="clust1" class="cluster"><title>cluster_gamestep</title>
<polygon fill="none" stroke="gray" points="8,-8 8,-902.701 236,-902.701 236,-8 8,-8"/>
<text text-anchor="middle" x="122" y="-887.501" font-family="Georgia" font-size="14.00">Game.step()</text>
</g>
<g id="clust6" class="cluster"><title>cluster_gamerendererrender</title>
<polygon fill="none" stroke="gray" points="24,-16 24,-235 220,-235 220,-16 24,-16"/>
<text text-anchor="middle" x="122" y="-219.8" font-family="Georgia" font-size="14.00">Game.renderer.render()</text>
</g>
<g id="clust2" class="cluster"><title>cluster_sceneupdate</title>
<polygon fill="none" stroke="gray" points="16,-516.48 16,-871.701 228,-871.701 228,-516.48 16,-516.48"/>
<text text-anchor="middle" x="122" y="-856.501" font-family="Georgia" font-size="14.00">Scene.update()</text>
</g>
<g id="clust3" class="cluster"><title>cluster_worldupdate</title>
<polygon fill="none" stroke="gray" points="24,-524.48 24,-778.96 220,-778.96 220,-524.48 24,-524.48"/>
<text text-anchor="middle" x="122" y="-763.76" font-family="Georgia" font-size="14.00">World.update()</text>
</g>
<g id="clust4" class="cluster"><title>cluster_scenerender</title>
<polygon fill="none" stroke="gray" points="16,-243 16,-508.48 228,-508.48 228,-243 16,-243"/>
<text text-anchor="middle" x="122" y="-493.28" font-family="Georgia" font-size="14.00">Scene.render()</text>
</g>
<g id="clust5" class="cluster"><title>cluster_worldrender</title>
<polygon fill="none" stroke="gray" points="24,-251 24,-415.74 220,-415.74 220,-251 24,-251"/>
<text text-anchor="middle" x="122" y="-400.54" font-family="Georgia" font-size="14.00">World.render()</text>
</g>
<!-- SceneUpdateEvent -->
<g id="node1" class="node"><title>SceneUpdateEvent</title>
<ellipse fill="none" stroke="black" cx="122" cy="-813.831" rx="67.3507" ry="26.7407"/>
<text text-anchor="middle" x="122" y="-817.631" font-family="Georgia" font-size="14.00" fill="blue">Scene event:</text>
<text text-anchor="middle" x="122" y="-802.631" font-family="Georgia" font-size="14.00" fill="blue">&#39;update&#39;</text>
</g>
<!-- WorldUpdateEvent -->
<g id="node2" class="node"><title>WorldUpdateEvent</title>
<ellipse fill="none" stroke="black" cx="122" cy="-721.09" rx="69.0935" ry="26.7407"/>
<text text-anchor="middle" x="122" y="-724.89" font-family="Georgia" font-size="14.00" fill="blue">World event:</text>
<text text-anchor="middle" x="122" y="-709.89" font-family="Georgia" font-size="14.00" fill="blue">&#39;update&#39;</text>
</g>
<!-- SceneUpdateEvent&#45;&gt;WorldUpdateEvent -->
<g id="edge1" class="edge"><title>SceneUpdateEvent&#45;&gt;WorldUpdateEvent</title>
<path fill="none" stroke="black" d="M122,-786.585C122,-777.667 122,-767.543 122,-758.002"/>
<polygon fill="black" stroke="black" points="125.5,-757.964 122,-747.964 118.5,-757.964 125.5,-757.964"/>
</g>
<!-- GameObjectUpdate -->
<g id="node3" class="node"><title>GameObjectUpdate</title>
<polygon fill="none" stroke="black" points="212,-658.22 32,-658.22 32,-622.22 212,-622.22 212,-658.22"/>
<text text-anchor="middle" x="122" y="-636.52" font-family="Georgia" font-size="14.00">GameObject.update()</text>
</g>
<!-- WorldUpdateEvent&#45;&gt;GameObjectUpdate -->
<g id="edge2" class="edge"><title>WorldUpdateEvent&#45;&gt;GameObjectUpdate</title>
<path fill="none" stroke="black" d="M122,-693.828C122,-685.727 122,-676.788 122,-668.613"/>
<polygon fill="black" stroke="black" points="125.5,-668.44 122,-658.44 118.5,-668.44 125.5,-668.44"/>
</g>
<!-- WorldPostUpdateEvent -->
<g id="node4" class="node"><title>WorldPostUpdateEvent</title>
<ellipse fill="none" stroke="black" cx="122" cy="-559.35" rx="69.0935" ry="26.7407"/>
<text text-anchor="middle" x="122" y="-563.15" font-family="Georgia" font-size="14.00" fill="blue">World event:</text>
<text text-anchor="middle" x="122" y="-548.15" font-family="Georgia" font-size="14.00" fill="blue">&#39;postupdate&#39;</text>
</g>
<!-- GameObjectUpdate&#45;&gt;WorldPostUpdateEvent -->
<g id="edge3" class="edge"><title>GameObjectUpdate&#45;&gt;WorldPostUpdateEvent</title>
<path fill="none" stroke="black" d="M122,-622.107C122,-614.617 122,-605.526 122,-596.648"/>
<polygon fill="black" stroke="black" points="125.5,-596.433 122,-586.433 118.5,-596.433 125.5,-596.433"/>
</g>
<!-- SceneRenderEvent -->
<g id="node5" class="node"><title>SceneRenderEvent</title>
<ellipse fill="none" stroke="black" cx="122" cy="-450.61" rx="67.3507" ry="26.7407"/>
<text text-anchor="middle" x="122" y="-454.41" font-family="Georgia" font-size="14.00" fill="blue">Scene event:</text>
<text text-anchor="middle" x="122" y="-439.41" font-family="Georgia" font-size="14.00" fill="blue">&#39;render&#39;</text>
</g>
<!-- WorldPostUpdateEvent&#45;&gt;SceneRenderEvent -->
<g id="edge4" class="edge"><title>WorldPostUpdateEvent&#45;&gt;SceneRenderEvent</title>
<path fill="none" stroke="black" d="M122,-532.239C122,-518.929 122,-502.526 122,-487.999"/>
<polygon fill="black" stroke="black" points="125.5,-487.822 122,-477.822 118.5,-487.822 125.5,-487.822"/>
</g>
<!-- BuildRenderList -->
<g id="node6" class="node"><title>BuildRenderList</title>
<polygon fill="none" stroke="black" points="212,-384.74 32,-384.74 32,-348.74 212,-348.74 212,-384.74"/>
<text text-anchor="middle" x="122" y="-363.04" font-family="Georgia" font-size="14.00">BuildRenderList()</text>
</g>
<!-- SceneRenderEvent&#45;&gt;BuildRenderList -->
<g id="edge5" class="edge"><title>SceneRenderEvent&#45;&gt;BuildRenderList</title>
<path fill="none" stroke="black" d="M122,-423.706C122,-414.615 122,-404.375 122,-395.164"/>
<polygon fill="black" stroke="black" points="125.5,-394.953 122,-384.953 118.5,-394.953 125.5,-394.953"/>
</g>
<!-- WorldRenderEvent -->
<g id="node7" class="node"><title>WorldRenderEvent</title>
<ellipse fill="none" stroke="black" cx="122" cy="-285.87" rx="71.3357" ry="26.7407"/>
<text text-anchor="middle" x="122" y="-289.67" font-family="Georgia" font-size="14.00" fill="blue">World event:</text>
<text text-anchor="middle" x="122" y="-274.67" font-family="Georgia" font-size="14.00" fill="blue">&#39;worldrender&#39;</text>
</g>
<!-- BuildRenderList&#45;&gt;WorldRenderEvent -->
<g id="edge6" class="edge"><title>BuildRenderList&#45;&gt;WorldRenderEvent</title>
<path fill="none" stroke="black" d="M122,-348.626C122,-341.137 122,-332.046 122,-323.168"/>
<polygon fill="black" stroke="black" points="125.5,-322.953 122,-312.953 118.5,-322.953 125.5,-322.953"/>
</g>
<!-- WorldRender -->
<g id="node8" class="node"><title>WorldRender</title>
<polygon fill="none" stroke="black" points="212,-204 32,-204 32,-168 212,-168 212,-204"/>
<text text-anchor="middle" x="122" y="-182.3" font-family="Georgia" font-size="14.00">World.renderGL()</text>
</g>
<!-- WorldRenderEvent&#45;&gt;WorldRender -->
<g id="edge7" class="edge"><title>WorldRenderEvent&#45;&gt;WorldRender</title>
<path fill="none" stroke="black" d="M122,-258.9C122,-245.091 122,-228.127 122,-214.145"/>
<polygon fill="black" stroke="black" points="125.5,-214.136 122,-204.136 118.5,-214.136 125.5,-214.136"/>
</g>
<!-- GameObjectRender -->
<g id="node9" class="node"><title>GameObjectRender</title>
<polygon fill="none" stroke="black" points="212,-132 32,-132 32,-96 212,-96 212,-132"/>
<text text-anchor="middle" x="122" y="-110.3" font-family="Georgia" font-size="14.00">GameObject.renderGL()</text>
</g>
<!-- WorldRender&#45;&gt;GameObjectRender -->
<g id="edge8" class="edge"><title>WorldRender&#45;&gt;GameObjectRender</title>
<path fill="none" stroke="black" d="M122,-167.697C122,-159.983 122,-150.712 122,-142.112"/>
<polygon fill="black" stroke="black" points="125.5,-142.104 122,-132.104 118.5,-142.104 125.5,-142.104"/>
</g>
<!-- WorldPostRender -->
<g id="node10" class="node"><title>WorldPostRender</title>
<polygon fill="none" stroke="black" points="212,-60 32,-60 32,-24 212,-24 212,-60"/>
<text text-anchor="middle" x="122" y="-38.3" font-family="Georgia" font-size="14.00">World.postRenderGL()</text>
</g>
<!-- GameObjectRender&#45;&gt;WorldPostRender -->
<g id="edge9" class="edge"><title>GameObjectRender&#45;&gt;WorldPostRender</title>
<path fill="none" stroke="black" d="M122,-95.6966C122,-87.9827 122,-78.7125 122,-70.1124"/>
<polygon fill="black" stroke="black" points="125.5,-70.1043 122,-60.1043 118.5,-70.1044 125.5,-70.1043"/>
</g>
</g>
</svg>
