<?xml version="1.0" encoding="UTF-8" standalone="no"?>
<!DOCTYPE svg PUBLIC "-//W3C//DTD SVG 1.1//EN"
 "http://www.w3.org/Graphics/SVG/1.1/DTD/svg11.dtd">
<!-- Generated by graphviz version 2.38.0 (20140413.2041)
 -->
<!-- Title: Game Pages: 1 -->
<svg width="422pt" height="337pt"
 viewBox="0.00 0.00 422.00 337.00" xmlns="http://www.w3.org/2000/svg" xmlns:xlink="http://www.w3.org/1999/xlink">
<g id="graph0" class="graph" transform="scale(1 1) rotate(0) translate(4 333)">
<title>Game</title>
<polygon fill="white" stroke="none" points="-4,4 -4,-333 418,-333 418,4 -4,4"/>
<!-- Game -->
<g id="node1" class="node"><title>Game</title>
<polygon fill="none" stroke="black" points="251,-292.5 251,-328.5 305,-328.5 305,-292.5 251,-292.5"/>
<text text-anchor="middle" x="278" y="-306.8" font-family="Georgia" font-size="14.00">Game</text>
</g>
<!-- SceneManager -->
<g id="node2" class="node"><title>SceneManager</title>
<polygon fill="none" stroke="black" points="221.5,-219.5 221.5,-255.5 334.5,-255.5 334.5,-219.5 221.5,-219.5"/>
<text text-anchor="middle" x="278" y="-233.8" font-family="Georgia" font-size="14.00">Scene manager</text>
</g>
<!-- Game&#45;&gt;SceneManager -->
<g id="edge1" class="edge"><title>Game&#45;&gt;SceneManager</title>
<path fill="none" stroke="black" d="M278,-292.313C278,-284.289 278,-274.547 278,-265.569"/>
<polygon fill="black" stroke="black" points="281.5,-265.529 278,-255.529 274.5,-265.529 281.5,-265.529"/>
</g>
<!-- Scene0 -->
<g id="node3" class="node"><title>Scene0</title>
<polygon fill="none" stroke="black" points="179,-146.5 179,-182.5 233,-182.5 233,-146.5 179,-146.5"/>
<text text-anchor="middle" x="206" y="-160.8" font-family="Georgia" font-size="14.00">Scene</text>
</g>
<!-- SceneManager&#45;&gt;Scene0 -->
<g id="edge2" class="edge"><title>SceneManager&#45;&gt;Scene0</title>
<path fill="none" stroke="black" d="M260.571,-219.313C251.55,-210.417 240.387,-199.409 230.512,-189.672"/>
<polygon fill="black" stroke="black" points="232.847,-187.058 223.269,-182.529 227.932,-192.042 232.847,-187.058"/>
</g>
<!-- Scene1 -->
<g id="node4" class="node"><title>Scene1</title>
<polygon fill="none" stroke="black" points="251,-146.5 251,-182.5 305,-182.5 305,-146.5 251,-146.5"/>
<text text-anchor="middle" x="278" y="-160.8" font-family="Georgia" font-size="14.00">Scene</text>
</g>
<!-- SceneManager&#45;&gt;Scene1 -->
<g id="edge3" class="edge"><title>SceneManager&#45;&gt;Scene1</title>
<path fill="none" stroke="black" d="M278,-219.313C278,-211.289 278,-201.547 278,-192.569"/>
<polygon fill="black" stroke="black" points="281.5,-192.529 278,-182.529 274.5,-192.529 281.5,-192.529"/>
</g>
<!-- Scene2 -->
<g id="node5" class="node"><title>Scene2</title>
<polygon fill="none" stroke="black" points="323,-146.5 323,-182.5 377,-182.5 377,-146.5 323,-146.5"/>
<text text-anchor="middle" x="350" y="-160.8" font-family="Georgia" font-size="14.00">Scene</text>
</g>
<!-- SceneManager&#45;&gt;Scene2 -->
<g id="edge4" class="edge"><title>SceneManager&#45;&gt;Scene2</title>
<path fill="none" stroke="black" d="M295.429,-219.313C304.45,-210.417 315.613,-199.409 325.488,-189.672"/>
<polygon fill="black" stroke="black" points="328.068,-192.042 332.731,-182.529 323.153,-187.058 328.068,-192.042"/>
</g>
<!-- World0 -->
<g id="node6" class="node"><title>World0</title>
<polygon fill="none" stroke="black" points="106,-73.5 106,-109.5 162,-109.5 162,-73.5 106,-73.5"/>
<text text-anchor="middle" x="134" y="-87.8" font-family="Georgia" font-size="14.00">World</text>
</g>
<!-- Scene0&#45;&gt;World0 -->
<g id="edge5" class="edge"><title>Scene0&#45;&gt;World0</title>
<path fill="none" stroke="black" d="M188.571,-146.313C179.55,-137.417 168.387,-126.409 158.512,-116.672"/>
<polygon fill="black" stroke="black" points="160.847,-114.058 151.269,-109.529 155.932,-119.042 160.847,-114.058"/>
</g>
<!-- World1 -->
<g id="node7" class="node"><title>World1</title>
<polygon fill="none" stroke="black" points="251,-73.5 251,-109.5 307,-109.5 307,-73.5 251,-73.5"/>
<text text-anchor="middle" x="279" y="-87.8" font-family="Georgia" font-size="14.00">World</text>
</g>
<!-- Scene0&#45;&gt;World1 -->
<g id="edge6" class="edge"><title>Scene0&#45;&gt;World1</title>
<path fill="none" stroke="black" d="M223.671,-146.313C232.817,-137.417 244.135,-126.409 254.147,-116.672"/>
<polygon fill="black" stroke="black" points="256.763,-119.01 261.491,-109.529 251.883,-113.992 256.763,-119.01"/>
</g>
<!-- GO00 -->
<g id="node8" class="node"><title>GO00</title>
<polygon fill="none" stroke="black" points="0,-0.5 0,-36.5 54,-36.5 54,-0.5 0,-0.5"/>
<text text-anchor="middle" x="27" y="-14.8" font-family="Georgia" font-size="14.00">GO</text>
</g>
<!-- World0&#45;&gt;GO00 -->
<g id="edge7" class="edge"><title>World0&#45;&gt;GO00</title>
<path fill="none" stroke="black" d="M108.371,-73.4937C94.3131,-64.1657 76.6935,-52.4742 61.448,-42.358"/>
<polygon fill="black" stroke="black" points="63.0585,-39.2263 52.7909,-36.6136 59.1882,-45.059 63.0585,-39.2263"/>
</g>
<!-- GO01 -->
<g id="node9" class="node"><title>GO01</title>
<polygon fill="none" stroke="black" points="72,-0.5 72,-36.5 126,-36.5 126,-0.5 72,-0.5"/>
<text text-anchor="middle" x="99" y="-14.8" font-family="Georgia" font-size="14.00">GO</text>
</g>
<!-- World0&#45;&gt;GO01 -->
<g id="edge8" class="edge"><title>World0&#45;&gt;GO01</title>
<path fill="none" stroke="black" d="M125.527,-73.3129C121.443,-65.0279 116.456,-54.9103 111.912,-45.6933"/>
<polygon fill="black" stroke="black" points="114.955,-43.9507 107.395,-36.5288 108.677,-47.0458 114.955,-43.9507"/>
</g>
<!-- GO02 -->
<g id="node10" class="node"><title>GO02</title>
<polygon fill="none" stroke="black" points="144,-0.5 144,-36.5 198,-36.5 198,-0.5 144,-0.5"/>
<text text-anchor="middle" x="171" y="-14.8" font-family="Georgia" font-size="14.00">GO</text>
</g>
<!-- World0&#45;&gt;GO02 -->
<g id="edge9" class="edge"><title>World0&#45;&gt;GO02</title>
<path fill="none" stroke="black" d="M142.957,-73.3129C147.32,-64.9407 152.658,-54.6971 157.501,-45.4026"/>
<polygon fill="black" stroke="black" points="160.608,-47.0144 162.126,-36.5288 154.401,-43.7794 160.608,-47.0144"/>
</g>
<!-- GO10 -->
<g id="node11" class="node"><title>GO10</title>
<polygon fill="none" stroke="black" points="216,-0.5 216,-36.5 270,-36.5 270,-0.5 216,-0.5"/>
<text text-anchor="middle" x="243" y="-14.8" font-family="Georgia" font-size="14.00">GO</text>
</g>
<!-- World1&#45;&gt;GO10 -->
<g id="edge10" class="edge"><title>World1&#45;&gt;GO10</title>
<path fill="none" stroke="black" d="M270.285,-73.3129C266.085,-65.0279 260.955,-54.9103 256.281,-45.6933"/>
<polygon fill="black" stroke="black" points="259.278,-43.865 251.634,-36.5288 253.035,-47.0307 259.278,-43.865"/>
</g>
<!-- GO11 -->
<g id="node12" class="node"><title>GO11</title>
<polygon fill="none" stroke="black" points="288,-0.5 288,-36.5 342,-36.5 342,-0.5 288,-0.5"/>
<text text-anchor="middle" x="315" y="-14.8" font-family="Georgia" font-size="14.00">GO</text>
</g>
<!-- World1&#45;&gt;GO11 -->
<g id="edge11" class="edge"><title>World1&#45;&gt;GO11</title>
<path fill="none" stroke="black" d="M287.715,-73.3129C291.915,-65.0279 297.045,-54.9103 301.719,-45.6933"/>
<polygon fill="black" stroke="black" points="304.965,-47.0307 306.366,-36.5288 298.722,-43.865 304.965,-47.0307"/>
</g>
<!-- GO12 -->
<g id="node13" class="node"><title>GO12</title>
<polygon fill="none" stroke="black" points="360,-0.5 360,-36.5 414,-36.5 414,-0.5 360,-0.5"/>
<text text-anchor="middle" x="387" y="-14.8" font-family="Georgia" font-size="14.00">GO</text>
</g>
<!-- World1&#45;&gt;GO12 -->
<g id="edge12" class="edge"><title>World1&#45;&gt;GO12</title>
<path fill="none" stroke="black" d="M304.869,-73.4937C319.058,-64.1657 336.842,-52.4742 352.23,-42.358"/>
<polygon fill="black" stroke="black" points="354.535,-45.0316 360.968,-36.6136 350.689,-39.1823 354.535,-45.0316"/>
</g>
</g>
</svg>
