<?xml version="1.0" encoding="UTF-8" standalone="no"?>
<!DOCTYPE svg PUBLIC "-//W3C//DTD SVG 1.1//EN"
 "http://www.w3.org/Graphics/SVG/1.1/DTD/svg11.dtd">
<!-- Generated by graphviz version 2.38.0 (20140413.2041)
 -->
<!-- Title: ClassTree Pages: 1 -->
<svg width="370pt" height="350pt"
 viewBox="0.00 0.00 369.74 349.74" xmlns="http://www.w3.org/2000/svg" xmlns:xlink="http://www.w3.org/1999/xlink">
<g id="graph0" class="graph" transform="scale(1 1) rotate(0) translate(4 345.74)">
<title>ClassTree</title>
<polygon fill="white" stroke="none" points="-4,4 -4,-345.74 365.74,-345.74 365.74,4 -4,4"/>
<!-- BuiltInContainer -->
<g id="node1" class="node"><title>BuiltInContainer</title>
<ellipse fill="none" stroke="black" cx="132.147" cy="-314.87" rx="56.6372" ry="26.7407"/>
<text text-anchor="middle" x="132.147" y="-318.67" font-family="Georgia" font-size="14.00">Build&#45;in</text>
<text text-anchor="middle" x="132.147" y="-303.67" font-family="Georgia" font-size="14.00">Container</text>
</g>
<!-- Container -->
<g id="node2" class="node"><title>Container</title>
<ellipse fill="none" stroke="black" cx="132.147" cy="-234" rx="51.9908" ry="18"/>
<text text-anchor="middle" x="132.147" y="-230.3" font-family="Georgia" font-size="14.00">Container</text>
</g>
<!-- BuiltInContainer&#45;&gt;Container -->
<g id="edge1" class="edge"><title>BuiltInContainer&#45;&gt;Container</title>
<path fill="none" stroke="black" d="M132.147,-287.607C132.147,-279.506 132.147,-270.568 132.147,-262.392"/>
<polygon fill="black" stroke="black" points="135.647,-262.22 132.147,-252.22 128.647,-262.22 135.647,-262.22"/>
</g>
<!-- BaseSizer -->
<g id="node3" class="node"><title>BaseSizer</title>
<ellipse fill="none" stroke="black" cx="132.147" cy="-162" rx="50.0912" ry="18"/>
<text text-anchor="middle" x="132.147" y="-158.3" font-family="Georgia" font-size="14.00">BaseSizer</text>
</g>
<!-- Container&#45;&gt;BaseSizer -->
<g id="edge2" class="edge"><title>Container&#45;&gt;BaseSizer</title>
<path fill="none" stroke="black" d="M132.147,-215.697C132.147,-207.983 132.147,-198.712 132.147,-190.112"/>
<polygon fill="black" stroke="black" points="135.647,-190.104 132.147,-180.104 128.647,-190.104 135.647,-190.104"/>
</g>
<!-- Sizer -->
<g id="node4" class="node"><title>Sizer</title>
<ellipse fill="none" stroke="black" cx="33.1471" cy="-90" rx="31.3957" ry="18"/>
<text text-anchor="middle" x="33.1471" y="-86.3" font-family="Georgia" font-size="14.00">Sizer</text>
</g>
<!-- BaseSizer&#45;&gt;Sizer -->
<g id="edge3" class="edge"><title>BaseSizer&#45;&gt;Sizer</title>
<path fill="none" stroke="black" d="M110.176,-145.465C95.468,-135.065 76.006,-121.304 60.3247,-110.217"/>
<polygon fill="black" stroke="black" points="62.2418,-107.286 52.056,-104.37 58.2004,-113.001 62.2418,-107.286"/>
</g>
<!-- GridSizer -->
<g id="node6" class="node"><title>GridSizer</title>
<ellipse fill="none" stroke="black" cx="132.147" cy="-90" rx="50.0912" ry="18"/>
<text text-anchor="middle" x="132.147" y="-86.3" font-family="Georgia" font-size="14.00">GridSizer</text>
</g>
<!-- BaseSizer&#45;&gt;GridSizer -->
<g id="edge5" class="edge"><title>BaseSizer&#45;&gt;GridSizer</title>
<path fill="none" stroke="black" d="M132.147,-143.697C132.147,-135.983 132.147,-126.712 132.147,-118.112"/>
<polygon fill="black" stroke="black" points="135.647,-118.104 132.147,-108.104 128.647,-118.104 135.647,-118.104"/>
</g>
<!-- FixedWidthSizer -->
<g id="node7" class="node"><title>FixedWidthSizer</title>
<ellipse fill="none" stroke="black" cx="281.147" cy="-90" rx="80.6858" ry="18"/>
<text text-anchor="middle" x="281.147" y="-86.3" font-family="Georgia" font-size="14.00">FixedWidthSizer</text>
</g>
<!-- BaseSizer&#45;&gt;FixedWidthSizer -->
<g id="edge6" class="edge"><title>BaseSizer&#45;&gt;FixedWidthSizer</title>
<path fill="none" stroke="black" d="M161.229,-147.337C183.383,-136.929 214.201,-122.451 239.048,-110.778"/>
<polygon fill="black" stroke="black" points="240.685,-113.876 248.247,-106.456 237.708,-107.541 240.685,-113.876"/>
</g>
<!-- Label -->
<g id="node5" class="node"><title>Label</title>
<ellipse fill="none" stroke="black" cx="33.1471" cy="-18" rx="33.2948" ry="18"/>
<text text-anchor="middle" x="33.1471" y="-14.3" font-family="Georgia" font-size="14.00">Label</text>
</g>
<!-- Sizer&#45;&gt;Label -->
<g id="edge4" class="edge"><title>Sizer&#45;&gt;Label</title>
<path fill="none" stroke="black" d="M33.1471,-71.6966C33.1471,-63.9827 33.1471,-54.7125 33.1471,-46.1124"/>
<polygon fill="black" stroke="black" points="36.6472,-46.1043 33.1471,-36.1043 29.6472,-46.1044 36.6472,-46.1043"/>
</g>
</g>
</svg>
