<?xml version="1.0" encoding="UTF-8" standalone="no"?>
<!DOCTYPE svg PUBLIC "-//W3C//DTD SVG 1.1//EN"
 "http://www.w3.org/Graphics/SVG/1.1/DTD/svg11.dtd">
<!-- Generated by graphviz version 2.38.0 (20140413.2041)
 -->
<!-- Title: ClassTree Pages: 1 -->
<svg width="648pt" height="83pt"
 viewBox="0.00 0.00 647.74 82.95" xmlns="http://www.w3.org/2000/svg" xmlns:xlink="http://www.w3.org/1999/xlink">
<g id="graph0" class="graph" transform="scale(1 1) rotate(0) translate(4 78.9533)">
<title>ClassTree</title>
<polygon fill="white" stroke="none" points="-4,4 -4,-78.9533 643.744,-78.9533 643.744,4 -4,4"/>
<!-- GameObject -->
<g id="node1" class="node"><title>GameObject</title>
<ellipse fill="none" stroke="black" cx="67.8823" cy="-37.4767" rx="67.7647" ry="26.7407"/>
<text text-anchor="middle" x="67.8823" y="-41.2767" font-family="Georgia" font-size="14.00">GameObject</text>
<text text-anchor="middle" x="67.8823" y="-26.2767" font-family="Georgia" font-size="14.00">(Children)</text>
</g>
<!-- Container -->
<g id="node2" class="node"><title>Container</title>
<ellipse fill="none" stroke="black" cx="237.525" cy="-37.4767" rx="65.5227" ry="37.4533"/>
<text text-anchor="middle" x="237.525" y="-48.7767" font-family="Georgia" font-size="14.00">Container</text>
<text text-anchor="middle" x="237.525" y="-33.7767" font-family="Georgia" font-size="14.00">(Transform,</text>
<text text-anchor="middle" x="237.525" y="-18.7767" font-family="Georgia" font-size="14.00">Size)</text>
</g>
<!-- GameObject&#45;&gt;Container -->
<g id="edge1" class="edge"><title>GameObject&#45;&gt;Container</title>
<path fill="none" stroke="black" d="M136.103,-37.4767C144.457,-37.4767 153.041,-37.4767 161.503,-37.4767"/>
<polygon fill="black" stroke="black" points="161.742,-40.9768 171.742,-37.4767 161.742,-33.9768 161.742,-40.9768"/>
</g>
<!-- Sprite -->
<g id="node3" class="node"><title>Sprite</title>
<ellipse fill="none" stroke="black" cx="393.734" cy="-37.4767" rx="54.3945" ry="26.7407"/>
<text text-anchor="middle" x="393.734" y="-41.2767" font-family="Georgia" font-size="14.00">Sprite</text>
<text text-anchor="middle" x="393.734" y="-26.2767" font-family="Georgia" font-size="14.00">(Texture)</text>
</g>
<!-- Container&#45;&gt;Sprite -->
<g id="edge2" class="edge"><title>Container&#45;&gt;Sprite</title>
<path fill="none" stroke="black" d="M303.477,-37.4767C311.903,-37.4767 320.529,-37.4767 328.936,-37.4767"/>
<polygon fill="black" stroke="black" points="329.056,-40.9768 339.056,-37.4767 329.056,-33.9768 329.056,-40.9768"/>
</g>
<!-- Text -->
<g id="node4" class="node"><title>Text</title>
<ellipse fill="none" stroke="black" cx="561.963" cy="-37.4767" rx="77.5641" ry="37.4533"/>
<text text-anchor="middle" x="561.963" y="-48.7767" font-family="Georgia" font-size="14.00">Text</text>
<text text-anchor="middle" x="561.963" y="-33.7767" font-family="Georgia" font-size="14.00">(Text&#45;&gt;Canvas</text>
<text text-anchor="middle" x="561.963" y="-18.7767" font-family="Georgia" font-size="14.00">&#45;&gt;Texture)</text>
</g>
<!-- Sprite&#45;&gt;Text -->
<g id="edge3" class="edge"><title>Sprite&#45;&gt;Text</title>
<path fill="none" stroke="black" d="M448.244,-37.4767C456.43,-37.4767 465.057,-37.4767 473.744,-37.4767"/>
<polygon fill="black" stroke="black" points="473.946,-40.9768 483.946,-37.4767 473.946,-33.9768 473.946,-40.9768"/>
</g>
</g>
</svg>
