<?xml version="1.0" encoding="UTF-8" standalone="no"?>
<!DOCTYPE svg PUBLIC "-//W3C//DTD SVG 1.1//EN"
 "http://www.w3.org/Graphics/SVG/1.1/DTD/svg11.dtd">
<!-- Generated by graphviz version 2.38.0 (20140413.2041)
 -->
<!-- Title: ClassTree Pages: 1 -->
<svg width="190pt" height="350pt"
 viewBox="0.00 0.00 190.19 349.74" xmlns="http://www.w3.org/2000/svg" xmlns:xlink="http://www.w3.org/1999/xlink">
<g id="graph0" class="graph" transform="scale(1 1) rotate(0) translate(4 345.74)">
<title>ClassTree</title>
<polygon fill="white" stroke="none" points="-4,4 -4,-345.74 186.193,-345.74 186.193,4 -4,4"/>
<!-- BuiltInContainer -->
<g id="node1" class="node"><title>BuiltInContainer</title>
<ellipse fill="none" stroke="black" cx="82.1471" cy="-314.87" rx="56.6372" ry="26.7407"/>
<text text-anchor="middle" x="82.1471" y="-318.67" font-family="Georgia" font-size="14.00">Build&#45;in</text>
<text text-anchor="middle" x="82.1471" y="-303.67" font-family="Georgia" font-size="14.00">Container</text>
</g>
<!-- Container -->
<g id="node2" class="node"><title>Container</title>
<ellipse fill="none" stroke="black" cx="82.1471" cy="-234" rx="51.9908" ry="18"/>
<text text-anchor="middle" x="82.1471" y="-230.3" font-family="Georgia" font-size="14.00">Container</text>
</g>
<!-- BuiltInContainer&#45;&gt;Container -->
<g id="edge1" class="edge"><title>BuiltInContainer&#45;&gt;Container</title>
<path fill="none" stroke="black" d="M82.1471,-287.607C82.1471,-279.506 82.1471,-270.568 82.1471,-262.392"/>
<polygon fill="black" stroke="black" points="85.6472,-262.22 82.1471,-252.22 78.6472,-262.22 85.6472,-262.22"/>
</g>
<!-- BaseSizer -->
<g id="node3" class="node"><title>BaseSizer</title>
<ellipse fill="none" stroke="black" cx="82.1471" cy="-162" rx="50.0912" ry="18"/>
<text text-anchor="middle" x="82.1471" y="-158.3" font-family="Georgia" font-size="14.00">BaseSizer</text>
</g>
<!-- Container&#45;&gt;BaseSizer -->
<g id="edge2" class="edge"><title>Container&#45;&gt;BaseSizer</title>
<path fill="none" stroke="black" d="M82.1471,-215.697C82.1471,-207.983 82.1471,-198.712 82.1471,-190.112"/>
<polygon fill="black" stroke="black" points="85.6472,-190.104 82.1471,-180.104 78.6472,-190.104 85.6472,-190.104"/>
</g>
<!-- Sizer -->
<g id="node4" class="node"><title>Sizer</title>
<ellipse fill="none" stroke="black" cx="33.1471" cy="-90" rx="31.3957" ry="18"/>
<text text-anchor="middle" x="33.1471" y="-86.3" font-family="Georgia" font-size="14.00">Sizer</text>
</g>
<!-- BaseSizer&#45;&gt;Sizer -->
<g id="edge3" class="edge"><title>BaseSizer&#45;&gt;Sizer</title>
<path fill="none" stroke="black" d="M70.5347,-144.411C64.4678,-135.744 56.9268,-124.971 50.2098,-115.375"/>
<polygon fill="black" stroke="black" points="52.9407,-113.173 44.3387,-106.988 47.2061,-117.188 52.9407,-113.173"/>
</g>
<!-- GridSizer -->
<g id="node6" class="node"><title>GridSizer</title>
<ellipse fill="none" stroke="black" cx="132.147" cy="-90" rx="50.0912" ry="18"/>
<text text-anchor="middle" x="132.147" y="-86.3" font-family="Georgia" font-size="14.00">GridSizer</text>
</g>
<!-- BaseSizer&#45;&gt;GridSizer -->
<g id="edge5" class="edge"><title>BaseSizer&#45;&gt;GridSizer</title>
<path fill="none" stroke="black" d="M93.9964,-144.411C100.01,-135.992 107.443,-125.585 114.147,-116.201"/>
<polygon fill="black" stroke="black" points="117.071,-118.128 120.035,-107.956 111.375,-114.059 117.071,-118.128"/>
</g>
<!-- Label -->
<g id="node5" class="node"><title>Label</title>
<ellipse fill="none" stroke="black" cx="33.1471" cy="-18" rx="33.2948" ry="18"/>
<text text-anchor="middle" x="33.1471" y="-14.3" font-family="Georgia" font-size="14.00">Label</text>
</g>
<!-- Sizer&#45;&gt;Label -->
<g id="edge4" class="edge"><title>Sizer&#45;&gt;Label</title>
<path fill="none" stroke="black" d="M33.1471,-71.6966C33.1471,-63.9827 33.1471,-54.7125 33.1471,-46.1124"/>
<polygon fill="black" stroke="black" points="36.6472,-46.1043 33.1471,-36.1043 29.6472,-46.1044 36.6472,-46.1043"/>
</g>
</g>
</svg>
